<?xml version="1.0" encoding="utf-8"?>
<!-- Generator: Adobe Illustrator 16.0.0, SVG Export Plug-In . SVG Version: 6.00 Build 0)  -->
<!DOCTYPE svg PUBLIC "-//W3C//DTD SVG 1.1//EN" "http://www.w3.org/Graphics/SVG/1.1/DTD/svg11.dtd">
<svg version="1.1" id="Layer_1" xmlns="http://www.w3.org/2000/svg" xmlns:xlink="http://www.w3.org/1999/xlink" x="0px" y="0px"
	 width="284px" height="156px" viewBox="0 0 284 156" enable-background="new 0 0 284 156" xml:space="preserve">
<rect x="971" y="497" fill="#67C9FF" width="2580" height="281"/>
<g>
	<path fill="#FFFFFF" d="M2156.338,708.278V668.62c0-4.854-0.845-8.169-2.535-9.947c-1.689-1.776-4.485-2.666-8.387-2.666
		c-2.081,0-3.946,0.412-5.591,1.235c-1.647,0.825-3.035,1.951-4.161,3.381c-1.128,1.43-1.973,3.078-2.536,4.94
		c-0.564,1.865-0.845,3.881-0.845,6.047v36.667h-16.903V620.9h16.903v31.727c0.604-1.386,1.538-2.708,2.795-3.966
		c1.256-1.255,2.708-2.318,4.356-3.187c1.646-0.865,3.466-1.561,5.461-2.08c1.992-0.521,4.073-0.78,6.241-0.78
		c6.586,0,11.94,1.8,16.059,5.396c4.116,3.599,6.176,8.604,6.176,15.019v45.249L2156.338,708.278L2156.338,708.278z"/>
	<path fill="#FFFFFF" d="M2211.598,709.969c-5.2,0-9.839-0.825-13.913-2.471c-4.074-1.646-7.521-3.943-10.337-6.891
		c-2.817-2.946-4.963-6.501-6.437-10.663c-1.476-4.161-2.21-8.711-2.21-13.652c0-5.026,0.758-9.622,2.275-13.783
		c1.517-4.161,3.706-7.714,6.566-10.662c2.86-2.945,6.307-5.221,10.337-6.825c4.031-1.604,8.602-2.406,13.718-2.406
		c5.026,0,9.535,0.803,13.522,2.406c3.986,1.604,7.39,3.857,10.207,6.761c2.816,2.905,4.983,6.437,6.502,10.597
		c1.516,4.161,2.275,8.799,2.275,13.913c0,5.116-0.76,9.731-2.275,13.848c-1.519,4.118-3.686,7.651-6.502,10.598
		c-2.817,2.947-6.24,5.223-10.271,6.825C2221.024,709.166,2216.539,709.969,2211.598,709.969z M2211.598,695.796
		c10.315,0,15.474-6.501,15.474-19.504c0-12.916-5.158-19.374-15.474-19.374c-10.316,0-15.473,6.458-15.473,19.374
		C2196.125,689.294,2201.281,695.796,2211.598,695.796z"/>
	<path fill="#FFFFFF" d="M2249.565,708.278V620.9h16.644v31.727c4.767-6.674,11.095-10.012,18.983-10.012
		c4.16,0,7.865,0.803,11.117,2.406c3.25,1.604,6.001,3.88,8.256,6.825c2.254,2.948,3.967,6.438,5.138,10.468
		c1.17,4.03,1.755,8.474,1.755,13.327c0,5.376-0.694,10.188-2.081,14.434c-1.388,4.248-3.295,7.846-5.722,10.792
		c-2.428,2.947-5.354,5.201-8.776,6.762c-3.425,1.561-7.132,2.34-11.117,2.34c-7.976,0-13.912-3.164-17.812-9.492l-0.132,7.803
		L2249.565,708.278L2249.565,708.278z M2279.861,696.186c4.246,0,7.715-1.798,10.401-5.396c2.687-3.596,4.031-8.256,4.031-13.979
		c0-13.175-4.854-19.764-14.562-19.764c-9.449,0-14.174,6.937-14.174,20.804c0,5.461,1.365,9.883,4.097,13.264
		C2272.385,694.496,2275.786,696.186,2279.861,696.186z"/>
	<path fill="#FFFFFF" d="M2317.049,708.278V620.9h16.644v31.727c4.768-6.674,11.096-10.012,18.983-10.012
		c4.161,0,7.867,0.803,11.117,2.406c3.251,1.604,6.002,3.88,8.257,6.825c2.253,2.948,3.967,6.438,5.137,10.468
		s1.756,8.474,1.756,13.327c0,5.376-0.695,10.188-2.08,14.434c-1.389,4.248-3.296,7.846-5.723,10.792
		c-2.428,2.947-5.354,5.201-8.775,6.762c-3.426,1.561-7.131,2.34-11.117,2.34c-7.977,0-13.913-3.164-17.813-9.492l-0.13,7.803
		L2317.049,708.278L2317.049,708.278z M2347.345,696.186c4.246,0,7.715-1.798,10.402-5.396c2.686-3.596,4.03-8.256,4.03-13.979
		c0-13.175-4.855-19.764-14.562-19.764c-9.448,0-14.173,6.937-14.173,20.804c0,5.461,1.365,9.883,4.096,13.264
		C2339.869,694.496,2343.271,696.186,2347.345,696.186z"/>
	<path fill="#FFFFFF" d="M2425.49,708.278V669.53c0-4.941-0.824-8.277-2.472-10.013c-1.646-1.732-4.465-2.601-8.45-2.601
		c-8.757,0-13.134,4.898-13.134,14.693v36.667h-16.902v-63.974h16.123v9.362c1.992-3.641,4.636-6.393,7.932-8.256
		c3.294-1.863,7.542-2.796,12.743-2.796c3.032,0,5.851,0.455,8.45,1.364c2.601,0.91,4.832,2.276,6.696,4.097
		c1.863,1.819,3.336,4.053,4.421,6.695c1.083,2.646,1.625,5.701,1.625,9.167v44.34L2425.49,708.278L2425.49,708.278z"/>
	<path fill="#FFFFFF" d="M2449.283,708.278V620.9h16.644v31.727c4.768-6.674,11.096-10.012,18.983-10.012
		c4.162,0,7.866,0.803,11.118,2.406c3.25,1.604,6,3.88,8.257,6.825c2.253,2.948,3.965,6.438,5.136,10.468
		c1.171,4.029,1.755,8.474,1.755,13.327c0,5.376-0.694,10.188-2.08,14.434c-1.388,4.248-3.295,7.846-5.721,10.792
		c-2.429,2.947-5.354,5.201-8.777,6.762c-3.426,1.561-7.131,2.34-11.117,2.34c-7.977,0-13.912-3.164-17.812-9.492l-0.13,7.803
		L2449.283,708.278L2449.283,708.278z M2479.58,696.186c4.246,0,7.714-1.798,10.402-5.396c2.686-3.596,4.03-8.256,4.03-13.979
		c0-13.175-4.855-19.764-14.563-19.764c-9.449,0-14.172,6.937-14.172,20.804c0,5.461,1.364,9.883,4.096,13.264
		S2475.504,696.186,2479.58,696.186z"/>
</g>
<g id="Wcc5zL_1_">
	
		<image overflow="visible" enable-background="new    " width="1350" height="1350" id="Wcc5zL" xlink:href="3EDA8B406EBB3250.jpeg"  transform="matrix(0.2745 0 0 0.2745 1080.999 1504.4775)">
	</image>
</g>
<g id="apQj18_1_">
	
		<image overflow="visible" enable-background="new    " width="295" height="252" id="apQj18" xlink:href="3EDA8B406EBB3250.jpeg"  transform="matrix(1 0 0 1 2726.999 1255)">
	</image>
</g>
<g id="YkSOXK_1_">
	
		<image overflow="visible" enable-background="new    " width="1305" height="960" id="YkSOXK" xlink:href="3EDA8B406EBB3250.jpeg"  transform="matrix(0.2829 0 0 0.2831 1487.5283 1541.0654)">
	</image>
</g>
<text transform="matrix(1 0 0 1 1558 1340)" font-family="'MyriadPro-Regular'" font-size="60">Sharing</text>
<text transform="matrix(1 0 0 1 1122 1468)" font-family="'MyriadPro-Regular'" font-size="60">Friendship</text>
<text transform="matrix(1 0 0 1 1610 1878)" font-family="'MyriadPro-Regular'" font-size="60">Staying</text>
<text transform="matrix(1 0 0 1 1850 1502)" font-family="'MyriadPro-Regular'" font-size="60">Loving</text>
<text transform="matrix(1 0 0 1 1150 1222)" font-family="'MyriadPro-Regular'" font-size="60">moving</text>
<text transform="matrix(1 0 0 1 1982 1698)" font-family="'MyriadPro-Regular'" font-size="60">relaxing</text>
<text transform="matrix(1 0 0 1 1110 1990)" font-family="'MyriadPro-Regular'" font-size="60">Fun</text>
<text transform="matrix(1 0 0 1 1454 1154)" font-family="'MyriadPro-Regular'" font-size="60">Adventure</text>
<text transform="matrix(1 0 0 1 2746 1210)" font-family="'MyriadPro-Regular'" font-size="60">Divide</text>
<line fill="none" stroke="#231F20" stroke-width="4" stroke-miterlimit="10" x1="2274" y1="1124" x2="2274" y2="2144"/>
<g>
	<circle fill="#FFFFFF" cx="1947.717" cy="649.415" r="17.172"/>
	<g>
		<circle fill="#FFFFFF" cx="2024.552" cy="649.736" r="17.172"/>
	</g>
	<g>
		<path fill="#FFFFFF" d="M2079,676.554c0,0-0.608,0.438-1.804,1.171c-1.202,0.713-2.955,1.811-5.274,3.016
			c-2.309,1.234-5.162,2.637-8.497,4.105c-3.33,1.492-7.158,2.99-11.387,4.512c-4.239,1.475-8.882,2.955-13.865,4.269
			c-4.981,1.313-10.289,2.534-15.836,3.497c-1.388,0.242-2.787,0.485-4.196,0.73c-1.417,0.196-2.844,0.395-4.278,0.593
			c-2.869,0.437-5.793,0.709-8.74,0.996c-1.473,0.164-2.958,0.229-4.444,0.349c-1.487,0.107-2.979,0.224-4.478,0.281
			c-2.997,0.069-6.004,0.231-9.017,0.225c-3.011-0.039-6.021-0.025-9.02-0.188c-2.999-0.095-5.98-0.292-8.933-0.573
			c-1.477-0.128-2.947-0.255-4.41-0.382c-1.457-0.191-2.906-0.381-4.348-0.57c-1.438-0.191-2.869-0.381-4.289-0.57
			c-1.416-0.225-2.813-0.494-4.203-0.738c-1.387-0.25-2.763-0.498-4.125-0.744c-1.357-0.272-2.695-0.58-4.018-0.887
			c-2.644-0.614-5.234-1.158-7.714-1.898c-1.242-0.35-2.467-0.694-3.673-1.034c-1.205-0.343-2.396-0.653-3.542-1.063
			c-2.296-0.776-4.515-1.525-6.646-2.245c-2.111-0.767-4.108-1.581-6.007-2.339c-1.891-0.786-3.698-1.466-5.339-2.274
			c-1.65-0.781-3.199-1.485-4.611-2.183c-1.416-0.685-2.717-1.305-3.854-1.964c-2.3-1.244-4.062-2.305-5.277-2.989
			c-1.208-0.701-1.839-1.099-1.839-1.099s0.739,0.12,2.123,0.346c1.371,0.256,3.397,0.575,5.922,1.087
			c2.522,0.519,5.637,0.96,9.128,1.631c1.745,0.342,3.622,0.62,5.593,0.926c1.972,0.293,4.013,0.703,6.172,0.997
			c2.149,0.306,4.388,0.625,6.706,0.956c2.307,0.349,4.713,0.591,7.166,0.904c2.45,0.332,4.977,0.587,7.558,0.835
			c1.291,0.118,2.589,0.269,3.901,0.411c1.316,0.104,2.646,0.21,3.986,0.315c1.338,0.111,2.688,0.203,4.043,0.34
			c1.359,0.083,2.729,0.167,4.107,0.25c1.377,0.083,2.762,0.166,4.154,0.249c1.393,0.061,2.793,0.121,4.198,0.182
			c1.405,0.051,2.813,0.144,4.229,0.163c1.417,0.009,2.835,0.049,4.257,0.09c2.843,0.119,5.701,0.051,8.558,0.064
			c2.855,0.05,5.713-0.067,8.559-0.092c2.843-0.133,5.683-0.148,8.495-0.295c5.623-0.299,11.168-0.589,16.529-1.063
			c2.689-0.169,5.312-0.521,7.904-0.712c2.584-0.28,5.112-0.556,7.572-0.823c2.465-0.274,4.859-0.581,7.178-0.887
			c2.329-0.262,4.557-0.634,6.72-0.909c4.304-0.634,8.271-1.227,11.779-1.826c3.517-0.575,6.586-1.127,9.121-1.593
			c2.533-0.474,4.543-0.831,5.903-1.119C2078.271,676.702,2079,676.554,2079,676.554z"/>
	</g>
</g>
<g>
	<circle cx="2225.106" cy="945.551" r="16.337"/>
	<g>
		<circle cx="2298.202" cy="945.858" r="16.337"/>
	</g>
	<g>
		<path d="M2350,971.37c0,0-0.577,0.423-1.709,1.132c-1.14,0.688-2.801,1.75-5.002,2.915c-2.19,1.194-4.899,2.548-8.068,3.967
			c-3.164,1.441-6.803,2.888-10.823,4.357c-4.03,1.425-8.447,2.853-13.189,4.122c-4.74,1.267-9.792,2.444-15.074,3.374
			c-1.32,0.232-2.652,0.468-3.995,0.705c-1.35,0.188-2.708,0.38-4.075,0.571c-2.731,0.422-5.518,0.687-8.323,0.96
			c-1.402,0.157-2.817,0.222-4.233,0.337c-1.417,0.104-2.838,0.216-4.265,0.271c-2.854,0.068-5.72,0.223-8.589,0.217
			c-2.868-0.038-5.737-0.026-8.592-0.182c-2.856-0.09-5.697-0.283-8.51-0.553c-1.406-0.124-2.807-0.246-4.199-0.368
			c-1.388-0.186-2.769-0.368-4.141-0.55c-1.371-0.186-2.731-0.368-4.085-0.551c-1.348-0.217-2.68-0.476-4.002-0.713
			c-1.321-0.242-2.63-0.48-3.927-0.719c-1.293-0.262-2.566-0.558-3.825-0.854c-2.517-0.594-4.982-1.118-7.343-1.832
			c-2.36-0.702-4.675-1.273-6.864-2.025c-2.184-0.749-4.294-1.472-6.319-2.167c-2.009-0.74-3.907-1.525-5.711-2.257
			c-1.797-0.76-3.515-1.415-5.073-2.197c-1.567-0.754-3.038-1.434-4.378-2.108c-1.346-0.661-2.579-1.261-3.658-1.896
			c-2.184-1.202-3.854-2.229-5.005-2.892c-1.146-0.678-1.743-1.062-1.743-1.062s0.713,0.092,2.027,0.31
			c1.309,0.233,3.242,0.521,5.648,0.988c2.406,0.476,5.375,0.874,8.701,1.49c1.663,0.313,3.45,0.569,5.326,0.848
			c1.878,0.269,3.82,0.648,5.875,0.916c2.046,0.281,4.176,0.574,6.381,0.878c2.195,0.321,4.483,0.543,6.816,0.831
			c2.33,0.307,4.731,0.542,7.186,0.77c1.228,0.108,2.462,0.248,3.708,0.38c1.251,0.096,2.515,0.192,3.788,0.291
			c1.272,0.102,2.557,0.185,3.844,0.312c1.293,0.077,2.595,0.153,3.903,0.231c2.616,0.171,5.265,0.295,7.938,0.396
			c1.335,0.047,2.673,0.135,4.019,0.15c1.346,0.007,2.694,0.044,4.045,0.083c2.701,0.112,5.416,0.045,8.129,0.059
			c2.715,0.049,5.428-0.062,8.133-0.084c2.7-0.126,5.397-0.136,8.069-0.271c5.345-0.279,10.613-0.543,15.709-0.982
			c2.558-0.152,5.05-0.482,7.515-0.653c2.457-0.26,4.861-0.513,7.201-0.76c2.346-0.25,4.621-0.533,6.828-0.812
			c2.216-0.238,4.335-0.583,6.395-0.835c4.096-0.581,7.873-1.123,11.215-1.672c3.351-0.525,6.274-1.03,8.693-1.454
			c2.414-0.432,4.332-0.754,5.631-1.018C2349.303,971.504,2350,971.37,2350,971.37z"/>
	</g>
</g>
<text transform="matrix(1 0 0 1 2214 1058)" font-family="'MyriadPro-Regular'" font-size="60">unite</text>
<text transform="matrix(1 0 0 1 1936 1316)" font-family="'MyriadPro-Regular'" font-size="60">Affinity</text>
<g>
	<g>
		<path fill="#FFFFFF" d="M445.916,543.574v-6.457c0-0.791-0.137-1.331-0.412-1.62c-0.274-0.29-0.73-0.435-1.366-0.435
			c-0.339,0-0.643,0.068-0.91,0.201c-0.269,0.136-0.494,0.317-0.677,0.551c-0.184,0.232-0.321,0.5-0.413,0.805
			c-0.092,0.304-0.138,0.632-0.138,0.983v5.971h-2.753v-14.227H442v5.165c0.098-0.225,0.25-0.439,0.455-0.645
			c0.204-0.205,0.44-0.378,0.709-0.52c0.268-0.141,0.563-0.254,0.889-0.338c0.325-0.085,0.664-0.127,1.018-0.127
			c1.071,0,1.943,0.294,2.614,0.878c0.671,0.586,1.007,1.401,1.007,2.446v7.367H445.916L445.916,543.574z"/>
		<path fill="#FFFFFF" d="M454.914,543.85c-0.847,0-1.603-0.134-2.265-0.402c-0.664-0.269-1.226-0.642-1.684-1.122
			c-0.459-0.479-0.808-1.059-1.048-1.736c-0.24-0.677-0.36-1.418-0.36-2.223c0-0.818,0.124-1.566,0.371-2.244
			s0.604-1.256,1.069-1.736c0.466-0.479,1.027-0.85,1.684-1.112c0.655-0.261,1.399-0.392,2.233-0.392
			c0.818,0,1.552,0.131,2.202,0.392c0.648,0.263,1.203,0.629,1.661,1.102c0.459,0.474,0.812,1.048,1.06,1.726
			c0.246,0.678,0.37,1.434,0.37,2.266c0,0.833-0.124,1.584-0.37,2.255c-0.248,0.671-0.6,1.246-1.06,1.725
			c-0.458,0.48-1.017,0.852-1.672,1.112C456.448,543.719,455.717,543.85,454.914,543.85z M454.914,541.542
			c1.679,0,2.519-1.058,2.519-3.176c0-2.104-0.84-3.154-2.519-3.154c-1.68,0-2.52,1.051-2.52,3.154
			C452.395,540.484,453.234,541.542,454.914,541.542z"/>
		<path fill="#FFFFFF" d="M461.095,543.574v-14.227h2.71v5.165c0.775-1.086,1.808-1.63,3.091-1.63c0.679,0,1.28,0.131,1.812,0.393
			c0.529,0.262,0.977,0.632,1.344,1.111s0.646,1.048,0.836,1.705c0.191,0.656,0.286,1.378,0.286,2.17
			c0,0.875-0.113,1.658-0.339,2.351c-0.226,0.69-0.537,1.276-0.931,1.757c-0.396,0.479-0.872,0.846-1.43,1.1
			c-0.557,0.254-1.16,0.381-1.81,0.381c-1.299,0-2.266-0.515-2.9-1.545l-0.021,1.271L461.095,543.574L461.095,543.574z
			 M466.027,541.605c0.691,0,1.257-0.293,1.694-0.879c0.438-0.585,0.656-1.345,0.656-2.275c0-2.146-0.79-3.218-2.371-3.218
			c-1.539,0-2.308,1.13-2.308,3.388c0,0.889,0.223,1.609,0.667,2.16C464.811,541.331,465.364,541.605,466.027,541.605z"/>
		<path fill="#FFFFFF" d="M472.083,543.574v-14.227h2.709v5.165c0.776-1.086,1.807-1.63,3.091-1.63c0.677,0,1.281,0.131,1.811,0.393
			c0.528,0.262,0.977,0.632,1.344,1.111s0.646,1.048,0.836,1.705c0.19,0.656,0.286,1.378,0.286,2.17
			c0,0.875-0.113,1.658-0.339,2.351c-0.227,0.69-0.537,1.276-0.933,1.757c-0.395,0.479-0.872,0.846-1.429,1.1
			c-0.558,0.254-1.161,0.381-1.811,0.381c-1.299,0-2.266-0.515-2.9-1.545l-0.021,1.271L472.083,543.574L472.083,543.574z
			 M477.014,541.605c0.692,0,1.257-0.293,1.694-0.879c0.438-0.585,0.656-1.345,0.656-2.275c0-2.146-0.79-3.218-2.371-3.218
			c-1.539,0-2.309,1.13-2.309,3.388c0,0.889,0.223,1.609,0.667,2.16C475.797,541.331,476.351,541.605,477.014,541.605z"/>
		<path fill="#FFFFFF" d="M489.738,543.574v-6.31c0-0.804-0.134-1.348-0.403-1.63c-0.268-0.282-0.726-0.423-1.376-0.423
			c-1.425,0-2.138,0.797-2.138,2.392v5.971h-2.752v-10.416h2.625v1.523c0.324-0.593,0.755-1.041,1.291-1.344
			s1.229-0.456,2.074-0.456c0.494,0,0.952,0.074,1.376,0.224c0.425,0.147,0.786,0.369,1.091,0.666
			c0.304,0.297,0.543,0.66,0.72,1.091c0.176,0.431,0.264,0.928,0.264,1.493v7.219H489.738z"/>
		<path fill="#FFFFFF" d="M493.611,543.574v-14.227h2.71v5.165c0.775-1.086,1.806-1.63,3.091-1.63c0.677,0,1.28,0.131,1.811,0.393
			c0.529,0.262,0.978,0.632,1.345,1.111c0.366,0.479,0.646,1.048,0.836,1.705c0.189,0.656,0.286,1.378,0.286,2.17
			c0,0.875-0.113,1.658-0.339,2.351c-0.226,0.69-0.536,1.276-0.932,1.757c-0.396,0.479-0.871,0.846-1.429,1.1
			c-0.559,0.254-1.161,0.381-1.812,0.381c-1.298,0-2.265-0.515-2.898-1.545l-0.021,1.271L493.611,543.574L493.611,543.574z
			 M498.544,541.605c0.691,0,1.256-0.293,1.694-0.879c0.437-0.585,0.655-1.345,0.655-2.275c0-2.146-0.789-3.218-2.37-3.218
			c-1.539,0-2.308,1.13-2.308,3.388c0,0.889,0.223,1.609,0.667,2.16C497.327,541.331,497.881,541.605,498.544,541.605z"/>
	</g>
	<g>
		<circle fill="#FFFFFF" cx="415.544" cy="535.289" r="2.428"/>
		<g>
			<circle fill="#FFFFFF" cx="426.407" cy="535.333" r="2.428"/>
		</g>
		<g>
			<path fill="#FFFFFF" d="M434.104,539.126c0,0-0.087,0.061-0.256,0.165c-0.17,0.101-0.417,0.256-0.746,0.426
				c-0.325,0.174-0.729,0.373-1.201,0.581c-0.471,0.211-1.013,0.423-1.609,0.638c-0.6,0.208-1.256,0.417-1.96,0.604
				c-0.705,0.186-1.454,0.358-2.239,0.494c-0.195,0.034-0.394,0.068-0.593,0.104c-0.201,0.028-0.402,0.057-0.605,0.084
				c-0.405,0.062-0.818,0.102-1.235,0.142c-0.208,0.022-0.418,0.031-0.628,0.05c-0.21,0.015-0.421,0.031-0.633,0.04
				c-0.425,0.01-0.85,0.032-1.275,0.032c-0.425-0.007-0.852-0.005-1.275-0.027c-0.424-0.013-0.846-0.041-1.264-0.081
				c-0.208-0.019-0.416-0.036-0.623-0.054c-0.206-0.027-0.411-0.055-0.614-0.081c-0.204-0.027-0.405-0.056-0.605-0.082
				c-0.2-0.031-0.398-0.07-0.594-0.104c-0.196-0.036-0.392-0.069-0.583-0.104c-0.192-0.038-0.382-0.082-0.568-0.125
				c-0.374-0.087-0.74-0.164-1.09-0.27c-0.176-0.05-0.35-0.098-0.521-0.146s-0.338-0.092-0.5-0.15
				c-0.324-0.108-0.638-0.216-0.938-0.316c-0.299-0.108-0.581-0.225-0.851-0.331c-0.267-0.111-0.521-0.208-0.755-0.322
				c-0.232-0.111-0.452-0.21-0.651-0.309c-0.2-0.098-0.385-0.186-0.544-0.277c-0.325-0.176-0.575-0.326-0.746-0.423
				c-0.171-0.1-0.261-0.155-0.261-0.155s0.104,0.017,0.301,0.048c0.193,0.037,0.479,0.082,0.837,0.154
				c0.356,0.073,0.797,0.136,1.291,0.229c0.247,0.049,0.512,0.087,0.791,0.131c0.277,0.042,0.566,0.101,0.873,0.142
				c0.304,0.043,0.619,0.089,0.947,0.135c0.326,0.049,0.666,0.083,1.014,0.127c0.346,0.047,0.704,0.083,1.067,0.118
				c0.184,0.017,0.366,0.038,0.551,0.059c0.188,0.016,0.375,0.03,0.563,0.045c0.19,0.017,0.381,0.028,0.572,0.048
				c0.191,0.012,0.386,0.023,0.581,0.035c0.193,0.012,0.391,0.023,0.587,0.034c0.196,0.009,0.395,0.019,0.594,0.026
				c0.198,0.008,0.396,0.021,0.598,0.022c0.201,0.001,0.401,0.008,0.603,0.014c0.401,0.017,0.806,0.007,1.21,0.009
				c0.402,0.007,0.807-0.009,1.21-0.013c0.401-0.019,0.803-0.021,1.201-0.042c0.795-0.042,1.58-0.083,2.337-0.15
				c0.38-0.024,0.751-0.074,1.118-0.1c0.365-0.04,0.723-0.08,1.07-0.117c0.349-0.039,0.688-0.082,1.016-0.125
				c0.33-0.037,0.645-0.089,0.949-0.129c0.609-0.091,1.17-0.173,1.666-0.259c0.497-0.08,0.933-0.158,1.289-0.225
				c0.359-0.066,0.644-0.118,0.835-0.158C434.001,539.146,434.104,539.126,434.104,539.126z"/>
		</g>
	</g>
</g>
<path fill="#231F20" d="M1892.277,889.328c2.949,1.412,4.487,4.342,3.434,6.545l-24.093,50.353
	c-1.055,2.203-4.301,2.845-7.251,1.433l-3.863-1.85c-2.95-1.411-4.488-4.342-3.434-6.544l24.093-50.354
	c1.054-2.202,4.301-2.844,7.251-1.433L1892.277,889.328z"/>
<path d="M1427.466,984.143c-1.31-0.9-1.867-3.042-4.042-1.914c-1.485,0.77,0.044,4.304,0.726,5.226
	c-0.921,0.622-2.631-3.396-4.181-0.478c-0.272,0.517,0.315,1.799,0.879,2.396c2.654,2.818,5.138,5.706,6.766,9.298
	c0.475,1.045,1.565,2.012,2.615,2.556c1.729,0.896,11.849-4.818,12.021-7.017c0.246-3.125,1.23-5.808,3.228-8.175
	c0.231-0.273,0.297-0.688,0.424-1.006c-1.685-1.544-2.922-1.749-4.472-0.329c-1.238,1.138-2.144,2.64-3.562,4.449
	c-0.353-1.499-0.616-2.562-0.848-3.635c-0.506-2.354-0.988-4.712-1.5-7.065c-0.5-2.301-1.059-2.807-2.718-2.516
	c-1.649,0.29-2.026,1.045-1.607,3.258c0.123,0.665,0.283,1.319,0.417,1.981c0.136,0.658,0.256,1.317,0.14,2.11
	c-0.78-1.53-1.568-3.06-2.335-4.596c-0.594-1.191-1.475-1.862-2.791-1.271c-1.409,0.633-1.658,1.773-0.991,3.124
	C1426.231,981.75,1426.856,982.943,1427.466,984.143z"/>
<g>
	<circle fill="#7F7F7F" cx="106.765" cy="62.418" r="19.857"/>
	<g>
		<circle fill="#7F7F7F" cx="188.32" cy="62.792" r="19.858"/>
	</g>
	<path fill="#7F7F7F" d="M142.741,120.837H68.05c0-19.499,16.72-35.31,37.345-35.31C126.021,85.527,142.741,101.338,142.741,120.837
		z"/>
	<path fill="#7F7F7F" d="M224.317,120.977h-74.688c0-19.498,16.719-35.307,37.346-35.307
		C207.6,85.67,224.317,101.479,224.317,120.977z"/>
	<g>
		<path fill="#7F7F7F" d="M187.133,96.146c-17.767,1.699-35.687,2.822-53.499,2.307C40.41,95.758,27.79,52.379,27.79,52.379
			c-0.313,51.115,56.436,63.96,93.634,67.282c38.771,3.465,84.219,1.631,115.958-24.981c11.923-9.998,24.749-27.446,25.522-44.266
			C262.904,50.416,232.028,91.853,187.133,96.146z"/>
	</g>
	<path fill="#7F7F7F" d="M274.098,55.841c1.924,0.202,2.262,1.245,2.398,2.245c0.277,2.014,0.133,3.504-1.226,3.819
		c0,0,0.986,0.539,1.073,1.463c0.065,0.708-0.066,2.023-2.139,2.753c-4.804,1.694-6.802,1.968-11.706,3.039
		c-1.363,0.299-3.037,0.625-4.435,0.299c-2.306-0.534-7.152-13.802-5.577-15.972c2.237-3.083,3.405-5.292,3.426-9.058
		c0.122-2.2,1.724-2.299,1.548-2.294c2.777-0.099,2.974,0.672,3.287,3.207c0.247,2.029-0.102,4.132-0.218,6.924
		c1.508-1.108,2.592-1.884,3.649-2.691c2.326-1.778-1.387,1.027,0.944-0.747c2.279-1.732,4.371-2.292,5.674-0.714
		c1.297,1.57,1.166,2.012,0.648,2.838c1.334-0.257,2.099,0.226,2.849,1.812C275.1,54.457,274.968,55.202,274.098,55.841z"/>
	<path fill="#7F7F7F" d="M14.025,58.272c-1.923,0.202-2.262,1.245-2.398,2.245c-0.277,2.014-0.132,3.504,1.226,3.818
		c0,0-0.987,0.539-1.073,1.464c-0.065,0.707,0.065,2.022,2.138,2.752c4.804,1.694,6.802,1.969,11.706,3.039
		c1.364,0.299,3.037,0.626,4.436,0.299c2.306-0.534,7.151-13.802,5.577-15.972c-2.238-3.083-3.406-5.292-3.427-9.058
		c-0.122-2.2-1.722-2.299-1.547-2.295c-2.778-0.098-2.974,0.672-3.287,3.208c-0.247,2.029,0.101,4.132,0.218,6.924
		c-1.508-1.109-2.592-1.884-3.648-2.691c-2.328-1.778,1.385,1.027-0.945-0.747c-2.279-1.732-4.372-2.292-5.675-0.715
		c-1.296,1.571-1.165,2.012-0.647,2.838c-1.335-0.258-2.099,0.226-2.85,1.812C13.023,56.888,13.155,57.633,14.025,58.272z"/>
</g>
<polyline fill="none" stroke="#231F20" stroke-width="20" stroke-miterlimit="10" points="1743.554,1104.949 1836.549,1052.451 
	1930.545,1104.949 "/>
<rect x="1886.099" y="1048.127" width="29.681" height="38.062"/>
<g>
	<g id="ACmSLS_1_">
		<g>
			<path fill="#FFFFFF" d="M1675.946,681.39c-3.298,1.67-5.943,3.445-8.858,4.386c-22.251-8.519-18.479-29.533-8.228-38.457
				c7.688,5.168,16.373,8.45,26.237,9.739c0.729-1.979,1.554-3.766,2.046-5.641c2.315-8.83,7.978-15.633,13.933-22.051
				c4.608-4.967,12.536-6.496,17.677,0.059c0.613,0.781,0.954,2.039,1.439,2.883c1.14,1.982,2.854,2.097,4.749,1.666
				c2.547-0.577,5.074-1.243,8.526-2.1c-4.094,10.934-7.949,21.229-11.983,32.006c18.356,3.451,36.525,3.502,55.376,2.521
				c-3.977-9.277,1.044-16.308,5.045-23.445c3.37-6.016,7.995-11.012,14.014-14.586c5.496-3.264,7.149-3.164,12.032,0.828
				c0.258,0.209,0.538,0.395,0.793,0.606c5.948,4.951,8.096,5.037,14.954-0.047c-2.519,10.979-4.867,21.217-7.274,31.713
				c4.007,1.062,7.844-0.223,11.646-0.887c32.601-6.158,34.105-14.852,34.546-15.639c18.222,6.812,13.428,23.146,12.568,25.877
				c-6.777,11.198-11.866,13.721-20.358,13.504c-1.838-0.707-3.562-1.715-5.762-2.793c-7.875,6.645-16.332,6.381-24.875,0.686
				c-8.572,5.707-16.399,5.703-25.01-0.051c-3.93,2.398-7.919,4.811-12.875,4.213c-4.684-0.562-8.42-2.899-11.557-6.289
				c-8.218,8.053-14.516,8.353-24.495,1.008c-8.165,6.822-16.608,7.33-25.188-0.123c-3.599,3.007-7.536,5.492-12.392,5.421
				c-4.644-0.068-8.726-1.798-11.937-5.396c-4.163,2.553-7.984,5.326-12.843,5.451
				C1683.114,686.575,1679.281,684.329,1675.946,681.39z M1811.831,655.95c-5.535-0.713-6.513-1.181-11.735-3.154
				c-1.657-0.627-3.235-1.049-4.341,0.836c-0.881,1.504-0.16,3.504,1.619,4.703c0.271,0.185,0.565,0.369,0.876,0.453
				c3.795,1.02,7.595,2.02,11.811,3.133c2.113-7.07,4.142-13.711,5.432-21.184c-4.752,1.338-9.987-1.812-12.401,4.108
				c-0.585,3.66,7.24,4.881,10.303,5.47L1811.831,655.95z M1703.06,651.669c0.358,5.482,3.518,8.75,9.179,10.113
				c3.948,0.951,3.948,0.951,4.28-0.105c0.378-1.206,2.187-6.008,2.406-7.09C1711.481,654.17,1707.897,653.504,1703.06,651.669z
				 M1721.063,649.087c1.636-3.199,3.168-6.833,4.334-9.667c-0.193-0.359-5.392,0.609-5.584,0.25c-1.239,0.505-7-0.333-8.755,4.885
				C1711.063,647.587,1717.709,647.589,1721.063,649.087z"/>
		</g>
	</g>
	<circle fill="#FFFFFF" cx="1726.388" cy="618.461" r="9.419"/>
	<g>
		<circle fill="#FFFFFF" cx="1812.62" cy="618.461" r="9.419"/>
	</g>
</g>
<g>
	<g>
		<rect x="498.531" y="-55.803" fill="#FFFFFF" width="158.005" height="25.819"/>
		<path fill="#FFFFFF" d="M530.618-74.338h46.346h36.457c41.266,0,41.209,13.151,41.209,13.151H501.132
			C501.132-61.187,502.631-74.338,530.618-74.338z"/>
		<rect x="498.531" y="-29.984" fill="#FFFFFF" width="11.872" height="13.027"/>
		<rect x="644.916" y="-31.445" fill="#FFFFFF" width="11.872" height="13.027"/>
		<path fill="#FFFFFF" d="M510.403-74.594c0,0-9.079,1.462-11.872,10.712v-23.739h11.872V-74.594z"/>
		<path fill="#FFFFFF" d="M644.916-73.18c0,0,11.62,1.798,11.872,10.712v-23.739h-11.872V-73.18z"/>
	</g>
	<circle fill="#FFFFFF" cx="546.252" cy="-91.218" r="13.11"/>
	<g>
		<circle fill="#FFFFFF" cx="608.969" cy="-91.219" r="13.11"/>
	</g>
	<g>
		<g>
			<path fill="#FFFFFF" d="M622.691-116.432l5.929-8.671v-0.048h-5.421v-1.157h7.213v0.84l-5.897,8.639v0.048h5.977v1.157h-7.799
				L622.691-116.432L622.691-116.432z"/>
		</g>
		<g>
			<path fill="#FFFFFF" d="M636.698-129.228l9.639-14.099v-0.078h-8.814v-1.881h11.728v1.365l-9.588,14.048v0.077h9.717v1.881
				h-12.681V-129.228L636.698-129.228z"/>
		</g>
		<g>
			<path fill="#FFFFFF" d="M657.134-139.136l8.041-11.761v-0.064h-7.354v-1.57h9.783v1.14l-7.998,11.718v0.065h8.106v1.569h-10.579
				V-139.136z"/>
		</g>
	</g>
</g>
<g>
	<circle fill="#FFFFFF" cx="430.411" cy="737.91" r="16.337"/>
	<g>
		<circle fill="#FFFFFF" cx="497.507" cy="738.216" r="16.337"/>
	</g>
	<path fill="#FFFFFF" d="M460.008,785.971H398.56c0-16.042,13.756-29.048,30.725-29.048S460.008,769.928,460.008,785.971z"/>
	<path fill="#FFFFFF" d="M527.123,786.087h-61.448c0-16.042,13.755-29.048,30.725-29.048
		C513.368,757.039,527.123,770.044,527.123,786.087z"/>
	<g>
		<path fill="#FFFFFF" d="M496.53,765.657c-14.618,1.397-29.361,2.321-44.016,1.897c-76.696-2.217-87.079-37.904-87.079-37.904
			c-0.258,42.052,46.431,52.621,77.034,55.354c31.897,2.85,69.287,1.341,95.4-20.554c9.809-8.226,20.361-22.58,20.998-36.417
			C558.868,728.034,533.466,762.125,496.53,765.657z"/>
	</g>
	<path fill="#FFFFFF" d="M568.077,732.499c1.582,0.166,1.861,1.024,1.973,1.846c0.229,1.657,0.109,2.884-1.008,3.143
		c0,0,0.812,0.442,0.883,1.204c0.055,0.582-0.054,1.664-1.759,2.265c-3.953,1.393-5.596,1.618-9.631,2.5
		c-1.122,0.245-2.498,0.514-3.649,0.246c-1.896-0.44-5.884-11.356-4.588-13.142c1.841-2.535,2.803-4.354,2.819-7.451
		c0.1-1.811,1.417-1.893,1.272-1.889c2.285-0.081,2.446,0.554,2.704,2.64c0.203,1.669-0.083,3.398-0.179,5.695
		c1.241-0.912,2.132-1.55,3.002-2.214c1.915-1.463-1.14,0.845,0.777-0.614c1.875-1.425,3.597-1.886,4.669-0.588
		c1.065,1.292,0.958,1.656,0.533,2.335c1.098-0.212,1.727,0.187,2.344,1.49C568.901,731.36,568.793,731.972,568.077,732.499z"/>
	<path fill="#FFFFFF" d="M354.111,734.499c-1.582,0.166-1.86,1.024-1.973,1.846c-0.228,1.657-0.109,2.884,1.008,3.143
		c0,0-0.812,0.442-0.883,1.204c-0.054,0.582,0.055,1.664,1.76,2.265c3.953,1.393,5.596,1.618,9.631,2.5
		c1.121,0.245,2.498,0.514,3.648,0.246c1.897-0.44,5.885-11.356,4.588-13.142c-1.841-2.535-2.802-4.354-2.818-7.451
		c-0.1-1.811-1.417-1.893-1.273-1.889c-2.285-0.081-2.445,0.554-2.703,2.64c-0.203,1.669,0.082,3.398,0.178,5.695
		c-1.24-0.912-2.131-1.55-3.002-2.214c-1.914-1.463,1.141,0.845-0.776-0.614c-1.875-1.425-3.597-1.886-4.669-0.588
		c-1.066,1.292-0.958,1.656-0.533,2.335c-1.098-0.212-1.727,0.187-2.344,1.49C353.289,733.36,353.396,733.972,354.111,734.499z"/>
</g>
<g>
	<g id="ACmSLS_2_">
		<g>
			<path fill="#FFFFFF" d="M716.235,206.465c-3.299,1.67-5.943,3.445-8.858,4.385c-22.251-8.518-18.479-29.533-8.228-38.457
				c7.688,5.168,16.373,8.451,26.237,9.74c0.729-1.979,1.554-3.766,2.045-5.641c2.316-8.83,7.979-15.633,13.934-22.051
				c4.608-4.967,12.536-6.496,17.677,0.059c0.613,0.781,0.954,2.039,1.439,2.883c1.14,1.982,2.854,2.096,4.748,1.666
				c2.548-0.578,5.075-1.244,8.527-2.1c-4.094,10.934-7.949,21.229-11.984,32.006c18.357,3.451,36.526,3.502,55.377,2.52
				c-3.977-9.276,1.044-16.307,5.045-23.445c3.369-6.016,7.994-11.012,14.014-14.586c5.496-3.264,7.148-3.164,12.032,0.828
				c0.258,0.209,0.538,0.396,0.793,0.607c5.947,4.951,8.096,5.037,14.954-0.047c-2.519,10.979-4.867,21.217-7.274,31.713
				c4.007,1.061,7.844-0.223,11.646-0.887c32.601-6.158,34.105-14.852,34.546-15.639c18.222,6.812,13.428,23.146,12.568,25.877
				c-6.777,11.199-11.867,13.721-20.358,13.504c-1.838-0.707-3.562-1.715-5.763-2.793c-7.875,6.645-16.332,6.381-24.875,0.686
				c-8.571,5.707-16.398,5.703-25.009-0.051c-3.93,2.398-7.919,4.811-12.875,4.213c-4.684-0.562-8.42-2.9-11.557-6.289
				c-8.219,8.053-14.516,8.352-24.495,1.008c-8.165,6.822-16.608,7.33-25.188-0.123c-3.599,3.006-7.537,5.492-12.392,5.42
				c-4.644-0.068-8.726-1.797-11.938-5.395c-4.163,2.553-7.983,5.326-12.842,5.451C723.402,211.65,719.569,209.404,716.235,206.465z
				 M852.119,181.025c-5.535-0.713-6.513-1.18-11.735-3.154c-1.658-0.627-3.235-1.049-4.341,0.836
				c-0.881,1.504-0.16,3.504,1.619,4.703c0.271,0.184,0.565,0.369,0.876,0.453c3.795,1.02,7.595,2.02,11.81,3.133
				c2.114-7.07,4.143-13.711,5.433-21.184c-4.752,1.338-9.987-1.812-12.401,4.108c-0.585,3.66,7.24,4.881,10.302,5.47
				L852.119,181.025z M743.349,176.744c0.358,5.482,3.518,8.75,9.179,10.113c3.948,0.951,3.948,0.951,4.279-0.105
				c0.378-1.206,2.188-6.008,2.407-7.09C751.771,179.246,748.187,178.579,743.349,176.744z M761.353,174.163
				c1.636-3.199,3.168-6.833,4.334-9.667c-0.193-0.359-5.392,0.609-5.584,0.25c-1.239,0.505-7-0.333-8.755,4.885
				C751.353,172.663,757.998,172.665,761.353,174.163z"/>
		</g>
	</g>
	<circle fill="#FFFFFF" cx="766.677" cy="143.537" r="9.419"/>
	<g>
		<circle fill="#FFFFFF" cx="852.909" cy="143.537" r="9.419"/>
	</g>
</g>
<g>
	<circle fill="#FFFFFF" cx="76.194" cy="-207.204" r="23.344"/>
	<g>
		<circle fill="#FFFFFF" cx="180.639" cy="-206.768" r="23.343"/>
	</g>
	<g>
		<path fill="#FFFFFF" d="M254.652-170.313c0,0-0.827,0.594-2.452,1.592c-1.634,0.968-4.017,2.46-7.169,4.099
			c-3.139,1.679-7.018,3.584-11.551,5.582c-4.527,2.028-9.731,4.064-15.479,6.132c-5.763,2.005-12.074,4.017-18.849,5.803
			c-6.771,1.785-13.985,3.444-21.526,4.753c-1.888,0.329-3.788,0.659-5.705,0.993c-1.925,0.267-3.866,0.536-5.817,0.806
			c-3.899,0.593-7.875,0.964-11.881,1.354c-2,0.223-4.021,0.312-6.041,0.474c-2.022,0.146-4.051,0.304-6.088,0.381
			c-4.074,0.096-8.162,0.316-12.256,0.306c-4.093-0.053-8.187-0.036-12.261-0.256c-4.076-0.127-8.129-0.397-12.143-0.778
			c-2.006-0.174-4.006-0.347-5.995-0.519c-1.979-0.26-3.95-0.519-5.908-0.775c-1.956-0.26-3.9-0.518-5.831-0.775
			c-1.924-0.306-3.826-0.671-5.713-1.005c-1.886-0.34-3.756-0.677-5.607-1.011c-1.846-0.37-3.665-0.788-5.461-1.205
			c-3.593-0.836-7.116-1.576-10.487-2.581c-1.688-0.475-3.353-0.944-4.992-1.406c-1.638-0.467-3.257-0.888-4.814-1.446
			c-3.121-1.055-6.137-2.074-9.032-3.052c-2.871-1.041-5.586-2.148-8.166-3.179c-2.57-1.068-5.026-1.991-7.258-3.092
			c-2.243-1.061-4.348-2.018-6.268-2.967c-1.926-0.929-3.693-1.773-5.239-2.668c-3.126-1.692-5.524-3.133-7.174-4.064
			c-1.642-0.953-2.5-1.493-2.5-1.493s1.004,0.164,2.886,0.469c1.863,0.349,4.618,0.783,8.05,1.479
			c3.429,0.705,7.662,1.305,12.409,2.217c2.372,0.465,4.923,0.843,7.601,1.258c2.681,0.398,5.455,0.955,8.39,1.355
			c2.922,0.416,5.965,0.85,9.115,1.299c3.137,0.474,6.407,0.803,9.741,1.229c3.33,0.451,6.766,0.798,10.273,1.136
			c1.754,0.162,3.52,0.365,5.303,0.559c1.79,0.142,3.596,0.286,5.418,0.43c1.819,0.151,3.655,0.275,5.497,0.462
			c1.849,0.113,3.711,0.227,5.584,0.341c1.872,0.112,3.754,0.225,5.647,0.338c1.894,0.082,3.797,0.164,5.707,0.246
			c1.911,0.07,3.825,0.196,5.751,0.221c1.925,0.013,3.854,0.067,5.787,0.123c3.864,0.162,7.749,0.069,11.631,0.089
			c3.882,0.067,7.766-0.092,11.635-0.125c3.865-0.181,7.725-0.203,11.548-0.401c7.644-0.407,15.183-0.8,22.47-1.447
			c3.656-0.229,7.219-0.709,10.745-0.967c3.513-0.382,6.949-0.756,10.293-1.12c3.351-0.373,6.606-0.79,9.759-1.204
			c3.166-0.356,6.192-0.862,9.133-1.237c5.851-0.861,11.242-1.667,16.012-2.482c4.781-0.782,8.953-1.533,12.398-2.165
			c3.443-0.643,6.176-1.129,8.025-1.521C253.661-170.111,254.652-170.313,254.652-170.313z"/>
	</g>
</g>
<rect x="1639.01" y="199.579" fill="#67C9FF" width="34" height="34"/>
<g>
	<path fill="#FFFFFF" d="M1652.736,214.102c0,1.396-1.127,2.523-2.523,2.523c-1.392,0-2.521-1.128-2.521-2.523
		c0-1.392,1.131-2.522,2.521-2.522C1651.609,211.579,1652.736,212.71,1652.736,214.102z"/>
	<g>
		<path fill="#FFFFFF" d="M1664.024,214.15c0,1.392-1.127,2.523-2.52,2.523c-1.396,0-2.522-1.132-2.522-2.523
			s1.127-2.524,2.522-2.524C1662.897,211.626,1664.024,212.759,1664.024,214.15z"/>
	</g>
	<g>
		<path fill="#FFFFFF" d="M1669.5,218.09c0,0-0.09,0.062-0.266,0.172c-0.178,0.106-0.434,0.268-0.772,0.443
			c-0.342,0.182-0.761,0.386-1.25,0.605c-0.489,0.215-1.051,0.438-1.67,0.66c-0.624,0.219-1.308,0.434-2.04,0.629
			c-0.731,0.19-1.509,0.371-2.324,0.512c-0.205,0.035-0.41,0.074-0.616,0.107c-0.209,0.029-0.418,0.059-0.629,0.088
			c-0.424,0.063-0.854,0.104-1.283,0.146c-0.221,0.023-0.436,0.033-0.654,0.049c-0.221,0.018-0.439,0.034-0.659,0.044
			c-0.439,0.011-0.88,0.034-1.323,0.032c-0.445-0.008-0.884-0.003-1.327-0.027c-0.44-0.015-0.878-0.044-1.31-0.083
			c-0.221-0.02-0.436-0.038-0.65-0.059c-0.215-0.029-0.427-0.054-0.639-0.083c-0.21-0.029-0.42-0.057-0.63-0.083
			c-0.208-0.034-0.415-0.073-0.615-0.108c-0.205-0.039-0.409-0.072-0.609-0.111c-0.196-0.039-0.396-0.084-0.587-0.131
			c-0.39-0.09-0.77-0.168-1.137-0.279c-0.18-0.049-0.361-0.102-0.537-0.152c-0.176-0.049-0.352-0.093-0.521-0.156
			c-0.339-0.111-0.662-0.225-0.976-0.326c-0.311-0.113-0.604-0.234-0.883-0.348c-0.277-0.111-0.542-0.215-0.784-0.332
			s-0.469-0.219-0.676-0.322c-0.209-0.098-0.399-0.189-0.566-0.287c-0.34-0.182-0.597-0.338-0.775-0.439
			c-0.179-0.104-0.271-0.161-0.271-0.161s0.11,0.021,0.312,0.05c0.201,0.039,0.5,0.088,0.871,0.16
			c0.369,0.078,0.827,0.141,1.34,0.239c0.256,0.051,0.533,0.093,0.82,0.137c0.291,0.044,0.591,0.103,0.907,0.146
			c0.312,0.045,0.645,0.094,0.985,0.143c0.339,0.049,0.69,0.088,1.052,0.131c0.36,0.049,0.731,0.088,1.112,0.123
			c0.188,0.02,0.381,0.039,0.571,0.062c0.195,0.017,0.392,0.031,0.586,0.046c0.195,0.014,0.396,0.028,0.597,0.049
			c0.199,0.015,0.399,0.024,0.601,0.039c0.205,0.01,0.405,0.024,0.61,0.034s0.41,0.02,0.621,0.029
			c0.204,0.004,0.409,0.02,0.619,0.024c0.21,0,0.416,0.004,0.625,0.01c0.42,0.021,0.84,0.011,1.261,0.011
			c0.419,0.01,0.839-0.011,1.255-0.011c0.42-0.02,0.835-0.024,1.25-0.044c0.824-0.043,1.641-0.088,2.426-0.156
			c0.396-0.023,0.781-0.078,1.162-0.106c0.381-0.039,0.752-0.08,1.113-0.121c0.36-0.04,0.712-0.084,1.054-0.128
			c0.342-0.039,0.669-0.094,0.985-0.137c0.634-0.094,1.217-0.178,1.731-0.269c0.517-0.084,0.968-0.164,1.34-0.231
			c0.371-0.071,0.666-0.123,0.867-0.164C1669.393,218.111,1669.5,218.09,1669.5,218.09z"/>
	</g>
</g>
</svg>
