<?xml version="1.0" encoding="UTF-8"?>

<svg version="1.2" baseProfile="tiny" width="50mm" height="50mm" viewBox="0 0 5000 5000" preserveAspectRatio="xMidYMid" fill-rule="evenodd" stroke-width="28.222" stroke-linejoin="round" xmlns="http://www.w3.org/2000/svg" xmlns:ooo="http://xml.openoffice.org/svg/export" xmlns:xlink="http://www.w3.org/1999/xlink" xmlns:presentation="http://sun.com/xmlns/staroffice/presentation" xmlns:smil="http://www.w3.org/2001/SMIL20/" xmlns:anim="urn:oasis:names:tc:opendocument:xmlns:animation:1.0" xml:space="preserve">
 <defs class="ClipPathGroup">
  <clipPath id="presentation_clip_path" clipPathUnits="userSpaceOnUse">
   <rect x="0" y="0" width="5000" height="5000"/>
  </clipPath>
 </defs>
 <defs class="TextShapeIndex">
  <g ooo:slide="id1" ooo:id-list="id3 id4 id5"/>
 </defs>
 <defs class="EmbeddedBulletChars">
  <g id="bullet-char-template(57356)" transform="scale(0.00048828125,-0.00048828125)">
   <path d="M 580,1141 L 1163,571 580,0 -4,571 580,1141 Z"/>
  </g>
  <g id="bullet-char-template(57354)" transform="scale(0.00048828125,-0.00048828125)">
   <path d="M 8,1128 L 1137,1128 1137,0 8,0 8,1128 Z"/>
  </g>
  <g id="bullet-char-template(10146)" transform="scale(0.00048828125,-0.00048828125)">
   <path d="M 174,0 L 602,739 174,1481 1456,739 174,0 Z M 1358,739 L 309,1346 659,739 1358,739 Z"/>
  </g>
  <g id="bullet-char-template(10132)" transform="scale(0.00048828125,-0.00048828125)">
   <path d="M 2015,739 L 1276,0 717,0 1260,543 174,543 174,936 1260,936 717,1481 1274,1481 2015,739 Z"/>
  </g>
  <g id="bullet-char-template(10007)" transform="scale(0.00048828125,-0.00048828125)">
   <path d="M 0,-2 C -7,14 -16,27 -25,37 L 356,567 C 262,823 215,952 215,954 215,979 228,992 255,992 264,992 276,990 289,987 310,991 331,999 354,1012 L 381,999 492,748 772,1049 836,1024 860,1049 C 881,1039 901,1025 922,1006 886,937 835,863 770,784 769,783 710,716 594,584 L 774,223 C 774,196 753,168 711,139 L 727,119 C 717,90 699,76 672,76 641,76 570,178 457,381 L 164,-76 C 142,-110 111,-127 72,-127 30,-127 9,-110 8,-76 1,-67 -2,-52 -2,-32 -2,-23 -1,-13 0,-2 Z"/>
  </g>
  <g id="bullet-char-template(10004)" transform="scale(0.00048828125,-0.00048828125)">
   <path d="M 285,-33 C 182,-33 111,30 74,156 52,228 41,333 41,471 41,549 55,616 82,672 116,743 169,778 240,778 293,778 328,747 346,684 L 369,508 C 377,444 397,411 428,410 L 1163,1116 C 1174,1127 1196,1133 1229,1133 1271,1133 1292,1118 1292,1087 L 1292,965 C 1292,929 1282,901 1262,881 L 442,47 C 390,-6 338,-33 285,-33 Z"/>
  </g>
  <g id="bullet-char-template(9679)" transform="scale(0.00048828125,-0.00048828125)">
   <path d="M 813,0 C 632,0 489,54 383,161 276,268 223,411 223,592 223,773 276,916 383,1023 489,1130 632,1184 813,1184 992,1184 1136,1130 1245,1023 1353,916 1407,772 1407,592 1407,412 1353,268 1245,161 1136,54 992,0 813,0 Z"/>
  </g>
  <g id="bullet-char-template(8226)" transform="scale(0.00048828125,-0.00048828125)">
   <path d="M 346,457 C 273,457 209,483 155,535 101,586 74,649 74,723 74,796 101,859 155,911 209,963 273,989 346,989 419,989 480,963 531,910 582,859 608,796 608,723 608,648 583,586 532,535 482,483 420,457 346,457 Z"/>
  </g>
  <g id="bullet-char-template(8211)" transform="scale(0.00048828125,-0.00048828125)">
   <path d="M -4,459 L 1135,459 1135,606 -4,606 -4,459 Z"/>
  </g>
 </defs>
 <defs class="TextEmbeddedBitmaps"/>
 <g>
  <g id="id2" class="Master_Slide">
   <g id="bg-id2" class="Background"/>
   <g id="bo-id2" class="BackgroundObjects"/>
  </g>
 </g>
 <g class="SlideGroup">
  <g>
   <g id="id1" class="Slide" clip-path="url(#presentation_clip_path)">
    <g class="Page">
     <g class="com.sun.star.drawing.ClosedBezierShape">
      <g id="id3">
       <rect class="BoundingBox" stroke="none" fill="none" x="1663" y="1098" width="2003" height="2918"/>
       <path fill="rgb(63,63,63)" stroke="none" d="M 2888,2590 C 2884,2612 2876,2632 2866,2649 L 2323,3325 2337,3013 2339,2889 2444,2715 2888,2590 Z M 2653,1232 C 2551,1058 2206,1052 2104,1232 L 1725,1955 C 1656,2063 1654,2192 1674,2314 1707,2513 1916,2883 2004,2997 2022,3020 2028,3064 2023,3093 2002,3198 1993,3286 1998,3379 2004,3510 2024,3582 2014,3724 L 2012,3766 C 2004,3800 2001,3876 2008,3912 2012,3933 2024,3953 2053,3957 L 2478,4015 C 2496,4013 2510,4007 2517,3996 2526,3980 2525,3947 2521,3928 2517,3910 2498,3900 2479,3894 L 2301,3816 C 2281,3808 2261,3777 2261,3751 2272,3502 2289,3269 2299,3019 2300,2974 2303,2945 2295,2901 2272,2772 2211,2561 2166,2476 L 2510,2604 2477,2659 2893,2542 C 2894,2495 2882,2450 2859,2425 L 2280,2130 C 2243,2090 2500,1735 2519,1703 L 2446,1530 2453,1515 2727,1903 C 2757,1948 2805,1957 2857,1969 L 3506,2100 C 3532,2100 3555,2095 3574,2085 3595,2079 3616,2069 3630,2058 3638,2052 3645,2041 3654,2019 3664,1992 3674,1901 3649,1869 3638,1855 3579,1835 3561,1831 3515,1823 3465,1820 3411,1814 L 2930,1672 2653,1232 Z"/>
      </g>
     </g>
     <g class="com.sun.star.drawing.ClosedBezierShape">
      <g id="id4">
       <rect class="BoundingBox" stroke="none" fill="none" x="500" y="1855" width="4177" height="2446"/>
       <path fill="rgb(63,63,63)" stroke="none" d="M 1348,3380 L 1316,3416 C 1300,3409 1284,3405 1266,3405 1198,3405 1143,3461 1143,3529 1143,3597 1198,3652 1266,3652 1312,3652 1352,3627 1373,3591 L 1422,3596 C 1395,3658 1334,3698 1266,3698 1173,3698 1097,3623 1097,3529 1097,3435 1173,3359 1266,3359 1296,3359 1324,3367 1348,3380 Z M 1434,3508 L 1387,3503 C 1385,3494 1382,3486 1379,3478 L 1412,3442 C 1424,3462 1431,3484 1434,3508 Z M 3947,3363 L 3966,3419 C 4005,3439 4033,3481 4033,3529 4033,3597 3977,3652 3909,3652 3841,3652 3786,3597 3786,3529 3786,3510 3790,3492 3798,3476 L 3779,3421 C 3755,3450 3740,3488 3740,3529 3740,3622 3816,3698 3909,3698 4003,3698 4079,3622 4079,3529 4079,3449 4024,3381 3947,3363 Z M 1707,3159 C 1796,3264 1845,3396 1845,3534 L 1541,3501 C 1537,3456 1521,3413 1496,3376 L 1707,3159 Z M 1969,3839 C 1970,3800 1979,3762 1982,3722 1990,3602 1971,3499 1965,3381 1963,3330 1964,3281 1969,3232 1938,3160 1896,3093 1844,3033 L 2025,2864 2095,3123 2242,3123 2143,2752 2254,2721 C 2238,2666 2215,2598 2201,2557 L 2089,2593 C 2061,2494 2034,2395 2007,2296 2067,2286 2129,2281 2190,2277 2205,2276 2217,2263 2218,2247 2217,2219 2207,2187 2183,2173 2152,2155 1956,2162 1908,2163 1855,2165 1806,2156 1753,2152 1727,2150 1699,2155 1684,2178 1664,2206 1675,2243 1690,2270 1729,2339 1820,2340 1890,2324 L 1981,2661 C 1790,2871 1597,3081 1406,3291 1363,3266 1315,3253 1266,3253 1114,3253 989,3377 989,3529 989,3681 1114,3805 1266,3805 1382,3805 1485,3732 1525,3625 L 1832,3657 C 1775,3923 1539,4114 1266,4114 945,4114 686,3854 686,3535 686,3215 945,2956 1266,2956 1371,2956 1473,2985 1562,3038 L 1690,2897 C 1565,2813 1418,2769 1266,2769 842,2769 500,3112 500,3535 500,3958 842,4300 1266,4300 1577,4300 1850,4114 1969,3839 Z M 2416,3980 L 2185,3948 2174,4019 2407,4053 2416,3980 Z M 3566,2851 L 3554,2817 C 3543,2785 3548,2749 3568,2722 L 3534,2627 3481,2611 3464,2564 2514,3538 C 2527,3566 2534,3597 2534,3628 2534,3722 2477,3794 2401,3825 L 2315,3785 C 2302,3780 2295,3759 2296,3747 L 2321,3414 C 2353,3414 2385,3421 2414,3436 L 3258,2503 3238,2445 2297,2709 C 2281,2654 2258,2585 2243,2544 L 3375,2183 3334,2069 C 3320,2022 3334,1969 3377,1943 L 3507,1864 C 3536,1847 3574,1856 3592,1885 3610,1914 3600,1953 3571,1971 L 3456,2040 3495,2148 3544,2154 3682,2540 3651,2586 3685,2681 C 3718,2691 3744,2716 3756,2749 L 3883,3123 3928,3253 C 4072,3263 4185,3383 4185,3529 4185,3681 4061,3805 3909,3805 3757,3805 3633,3681 3633,3529 3633,3449 3667,3375 3726,3322 L 3627,3031 C 3581,3057 3539,3089 3502,3126 3278,3351 3278,3720 3502,3944 3727,4169 4096,4169 4321,3944 4545,3719 4545,3351 4321,3126 4205,3010 4047,2950 3886,2957 L 3823,2774 C 4054,2747 4286,2827 4453,2994 4750,3291 4750,3779 4453,4076 4155,4374 3667,4374 3370,4076 3073,3779 3073,3291 3370,2994 3428,2936 3494,2888 3566,2851 Z"/>
      </g>
     </g>
     <g class="com.sun.star.drawing.ClosedBezierShape">
      <g id="id5">
       <rect class="BoundingBox" stroke="none" fill="none" x="2548" y="573" width="600" height="600"/>
       <path fill="rgb(63,63,63)" stroke="none" d="M 3144,914 C 3167,751 3052,599 2889,577 2725,554 2574,669 2551,833 2529,996 2643,1147 2808,1169 2971,1192 3122,1077 3144,914 Z"/>
      </g>
     </g>
    </g>
   </g>
  </g>
 </g>
</svg>