<?xml version="1.0" encoding="UTF-8"?>

<svg version="1.2" baseProfile="tiny" width="50mm" height="50mm" viewBox="0 0 5000 5000" preserveAspectRatio="xMidYMid" fill-rule="evenodd" stroke-width="28.222" stroke-linejoin="round" xmlns="http://www.w3.org/2000/svg" xmlns:ooo="http://xml.openoffice.org/svg/export" xmlns:xlink="http://www.w3.org/1999/xlink" xmlns:presentation="http://sun.com/xmlns/staroffice/presentation" xmlns:smil="http://www.w3.org/2001/SMIL20/" xmlns:anim="urn:oasis:names:tc:opendocument:xmlns:animation:1.0" xml:space="preserve">
 <defs class="ClipPathGroup">
  <clipPath id="presentation_clip_path" clipPathUnits="userSpaceOnUse">
   <rect x="0" y="0" width="5000" height="5000"/>
  </clipPath>
 </defs>
 <defs class="TextShapeIndex">
  <g ooo:slide="id1" ooo:id-list="id3 id4 id5 id6 id7 id8 id9 id10 id11"/>
 </defs>
 <defs class="EmbeddedBulletChars">
  <g id="bullet-char-template(57356)" transform="scale(0.00048828125,-0.00048828125)">
   <path d="M 580,1141 L 1163,571 580,0 -4,571 580,1141 Z"/>
  </g>
  <g id="bullet-char-template(57354)" transform="scale(0.00048828125,-0.00048828125)">
   <path d="M 8,1128 L 1137,1128 1137,0 8,0 8,1128 Z"/>
  </g>
  <g id="bullet-char-template(10146)" transform="scale(0.00048828125,-0.00048828125)">
   <path d="M 174,0 L 602,739 174,1481 1456,739 174,0 Z M 1358,739 L 309,1346 659,739 1358,739 Z"/>
  </g>
  <g id="bullet-char-template(10132)" transform="scale(0.00048828125,-0.00048828125)">
   <path d="M 2015,739 L 1276,0 717,0 1260,543 174,543 174,936 1260,936 717,1481 1274,1481 2015,739 Z"/>
  </g>
  <g id="bullet-char-template(10007)" transform="scale(0.00048828125,-0.00048828125)">
   <path d="M 0,-2 C -7,14 -16,27 -25,37 L 356,567 C 262,823 215,952 215,954 215,979 228,992 255,992 264,992 276,990 289,987 310,991 331,999 354,1012 L 381,999 492,748 772,1049 836,1024 860,1049 C 881,1039 901,1025 922,1006 886,937 835,863 770,784 769,783 710,716 594,584 L 774,223 C 774,196 753,168 711,139 L 727,119 C 717,90 699,76 672,76 641,76 570,178 457,381 L 164,-76 C 142,-110 111,-127 72,-127 30,-127 9,-110 8,-76 1,-67 -2,-52 -2,-32 -2,-23 -1,-13 0,-2 Z"/>
  </g>
  <g id="bullet-char-template(10004)" transform="scale(0.00048828125,-0.00048828125)">
   <path d="M 285,-33 C 182,-33 111,30 74,156 52,228 41,333 41,471 41,549 55,616 82,672 116,743 169,778 240,778 293,778 328,747 346,684 L 369,508 C 377,444 397,411 428,410 L 1163,1116 C 1174,1127 1196,1133 1229,1133 1271,1133 1292,1118 1292,1087 L 1292,965 C 1292,929 1282,901 1262,881 L 442,47 C 390,-6 338,-33 285,-33 Z"/>
  </g>
  <g id="bullet-char-template(9679)" transform="scale(0.00048828125,-0.00048828125)">
   <path d="M 813,0 C 632,0 489,54 383,161 276,268 223,411 223,592 223,773 276,916 383,1023 489,1130 632,1184 813,1184 992,1184 1136,1130 1245,1023 1353,916 1407,772 1407,592 1407,412 1353,268 1245,161 1136,54 992,0 813,0 Z"/>
  </g>
  <g id="bullet-char-template(8226)" transform="scale(0.00048828125,-0.00048828125)">
   <path d="M 346,457 C 273,457 209,483 155,535 101,586 74,649 74,723 74,796 101,859 155,911 209,963 273,989 346,989 419,989 480,963 531,910 582,859 608,796 608,723 608,648 583,586 532,535 482,483 420,457 346,457 Z"/>
  </g>
  <g id="bullet-char-template(8211)" transform="scale(0.00048828125,-0.00048828125)">
   <path d="M -4,459 L 1135,459 1135,606 -4,606 -4,459 Z"/>
  </g>
 </defs>
 <defs class="TextEmbeddedBitmaps"/>
 <g>
  <g id="id2" class="Master_Slide">
   <g id="bg-id2" class="Background"/>
   <g id="bo-id2" class="BackgroundObjects"/>
  </g>
 </g>
 <g class="SlideGroup">
  <g>
   <g id="id1" class="Slide" clip-path="url(#presentation_clip_path)">
    <g class="Page">
     <g class="com.sun.star.drawing.ClosedBezierShape">
      <g id="id3">
       <rect class="BoundingBox" stroke="none" fill="none" x="945" y="651" width="819" height="782"/>
       <path fill="rgb(63,63,63)" stroke="none" d="M 1551,1432 C 1639,1428 1780,1271 1760,1183 1726,1036 1456,701 1312,655 1193,617 896,975 953,1083 1022,1215 1402,1439 1551,1432 Z"/>
      </g>
     </g>
     <g class="com.sun.star.drawing.ClosedBezierShape">
      <g id="id4">
       <rect class="BoundingBox" stroke="none" fill="none" x="3478" y="2801" width="818" height="781"/>
       <path fill="rgb(63,63,63)" stroke="none" d="M 3480,3050 C 3469,2962 3599,2796 3689,2801 3841,2809 4217,3016 4287,3151 4345,3261 4045,3615 3928,3578 3786,3533 3499,3198 3480,3050 Z"/>
      </g>
     </g>
     <g class="com.sun.star.drawing.PolyPolygonShape">
      <g id="id5">
       <rect class="BoundingBox" stroke="none" fill="none" x="1414" y="1090" width="2404" height="2044"/>
       <path fill="rgb(63,63,63)" stroke="none" d="M 1414,1177 L 1488,1090 3817,3045 3744,3133 1414,1177 Z"/>
      </g>
     </g>
     <g class="com.sun.star.drawing.ClosedBezierShape">
      <g id="id6">
       <rect class="BoundingBox" stroke="none" fill="none" x="1597" y="2258" width="855" height="1533"/>
       <path fill="rgb(63,63,63)" stroke="none" d="M 2198,3562 C 2155,3725 1988,3822 1825,3779 1662,3736 1565,3570 1608,3407 L 1850,2485 C 1893,2322 2061,2225 2223,2268 2386,2311 2483,2477 2441,2641 L 2198,3562 Z"/>
      </g>
     </g>
     <g class="com.sun.star.drawing.ClosedBezierShape">
      <g id="id7">
       <rect class="BoundingBox" stroke="none" fill="none" x="2213" y="2419" width="748" height="391"/>
       <path fill="rgb(63,63,63)" stroke="none" d="M 2865,2558 C 2933,2577 2973,2647 2955,2714 2936,2782 2865,2822 2798,2803 L 2308,2669 C 2240,2651 2200,2581 2219,2513 2237,2445 2307,2405 2375,2423 L 2865,2558 Z"/>
      </g>
     </g>
     <g class="com.sun.star.drawing.ClosedBezierShape">
      <g id="id8">
       <rect class="BoundingBox" stroke="none" fill="none" x="2730" y="2447" width="656" height="359"/>
       <path fill="rgb(63,63,63)" stroke="none" d="M 3243,2450 C 3303,2436 3364,2479 3381,2549 3397,2617 3362,2684 3303,2698 L 2871,2802 C 2812,2817 2751,2773 2734,2705 2718,2637 2752,2570 2812,2556 L 3243,2450 Z"/>
      </g>
     </g>
     <g class="com.sun.star.drawing.ClosedBezierShape">
      <g id="id9">
       <rect class="BoundingBox" stroke="none" fill="none" x="2052" y="1669" width="560" height="560"/>
       <path fill="rgb(63,63,63)" stroke="none" d="M 2332,1669 C 2486,1669 2611,1795 2611,1949 2611,2103 2486,2228 2332,2228 2178,2228 2052,2103 2052,1949 2052,1795 2178,1669 2332,1669 Z"/>
      </g>
     </g>
     <g class="com.sun.star.drawing.ClosedBezierShape">
      <g id="id10">
       <rect class="BoundingBox" stroke="none" fill="none" x="1657" y="1344" width="422" height="1221"/>
       <path fill="rgb(63,63,63)" stroke="none" d="M 2074,2376 C 2090,2466 2046,2549 1975,2562 1905,2574 1835,2511 1819,2421 L 1661,1532 C 1645,1442 1690,1359 1761,1346 1832,1334 1902,1397 1918,1487 L 2074,2376 Z"/>
      </g>
     </g>
     <g class="com.sun.star.drawing.ClosedBezierShape">
      <g id="id11">
       <rect class="BoundingBox" stroke="none" fill="none" x="499" y="2743" width="3931" height="1058"/>
       <path fill="rgb(63,63,63)" stroke="none" d="M 3855,3197 L 1073,3197 C 857,3197 786,3003 735,2743 725,2792 501,3104 500,3218 498,3551 817,3800 1073,3800 L 3855,3800 C 4111,3800 4430,3551 4428,3218 4427,3104 4203,2792 4193,2743 4142,3003 4071,3197 3855,3197 Z"/>
      </g>
     </g>
    </g>
   </g>
  </g>
 </g>
</svg>