<?xml version="1.0" encoding="UTF-8"?>

<svg version="1.2" baseProfile="tiny" width="50mm" height="50mm" viewBox="0 0 5000 5000" preserveAspectRatio="xMidYMid" fill-rule="evenodd" stroke-width="28.222" stroke-linejoin="round" xmlns="http://www.w3.org/2000/svg" xmlns:ooo="http://xml.openoffice.org/svg/export" xmlns:xlink="http://www.w3.org/1999/xlink" xmlns:presentation="http://sun.com/xmlns/staroffice/presentation" xmlns:smil="http://www.w3.org/2001/SMIL20/" xmlns:anim="urn:oasis:names:tc:opendocument:xmlns:animation:1.0" xml:space="preserve">
 <defs class="ClipPathGroup">
  <clipPath id="presentation_clip_path" clipPathUnits="userSpaceOnUse">
   <rect x="0" y="0" width="5000" height="5000"/>
  </clipPath>
 </defs>
 <defs class="TextShapeIndex">
  <g ooo:slide="id1" ooo:id-list="id3 id4"/>
 </defs>
 <defs class="EmbeddedBulletChars">
  <g id="bullet-char-template(57356)" transform="scale(0.00048828125,-0.00048828125)">
   <path d="M 580,1141 L 1163,571 580,0 -4,571 580,1141 Z"/>
  </g>
  <g id="bullet-char-template(57354)" transform="scale(0.00048828125,-0.00048828125)">
   <path d="M 8,1128 L 1137,1128 1137,0 8,0 8,1128 Z"/>
  </g>
  <g id="bullet-char-template(10146)" transform="scale(0.00048828125,-0.00048828125)">
   <path d="M 174,0 L 602,739 174,1481 1456,739 174,0 Z M 1358,739 L 309,1346 659,739 1358,739 Z"/>
  </g>
  <g id="bullet-char-template(10132)" transform="scale(0.00048828125,-0.00048828125)">
   <path d="M 2015,739 L 1276,0 717,0 1260,543 174,543 174,936 1260,936 717,1481 1274,1481 2015,739 Z"/>
  </g>
  <g id="bullet-char-template(10007)" transform="scale(0.00048828125,-0.00048828125)">
   <path d="M 0,-2 C -7,14 -16,27 -25,37 L 356,567 C 262,823 215,952 215,954 215,979 228,992 255,992 264,992 276,990 289,987 310,991 331,999 354,1012 L 381,999 492,748 772,1049 836,1024 860,1049 C 881,1039 901,1025 922,1006 886,937 835,863 770,784 769,783 710,716 594,584 L 774,223 C 774,196 753,168 711,139 L 727,119 C 717,90 699,76 672,76 641,76 570,178 457,381 L 164,-76 C 142,-110 111,-127 72,-127 30,-127 9,-110 8,-76 1,-67 -2,-52 -2,-32 -2,-23 -1,-13 0,-2 Z"/>
  </g>
  <g id="bullet-char-template(10004)" transform="scale(0.00048828125,-0.00048828125)">
   <path d="M 285,-33 C 182,-33 111,30 74,156 52,228 41,333 41,471 41,549 55,616 82,672 116,743 169,778 240,778 293,778 328,747 346,684 L 369,508 C 377,444 397,411 428,410 L 1163,1116 C 1174,1127 1196,1133 1229,1133 1271,1133 1292,1118 1292,1087 L 1292,965 C 1292,929 1282,901 1262,881 L 442,47 C 390,-6 338,-33 285,-33 Z"/>
  </g>
  <g id="bullet-char-template(9679)" transform="scale(0.00048828125,-0.00048828125)">
   <path d="M 813,0 C 632,0 489,54 383,161 276,268 223,411 223,592 223,773 276,916 383,1023 489,1130 632,1184 813,1184 992,1184 1136,1130 1245,1023 1353,916 1407,772 1407,592 1407,412 1353,268 1245,161 1136,54 992,0 813,0 Z"/>
  </g>
  <g id="bullet-char-template(8226)" transform="scale(0.00048828125,-0.00048828125)">
   <path d="M 346,457 C 273,457 209,483 155,535 101,586 74,649 74,723 74,796 101,859 155,911 209,963 273,989 346,989 419,989 480,963 531,910 582,859 608,796 608,723 608,648 583,586 532,535 482,483 420,457 346,457 Z"/>
  </g>
  <g id="bullet-char-template(8211)" transform="scale(0.00048828125,-0.00048828125)">
   <path d="M -4,459 L 1135,459 1135,606 -4,606 -4,459 Z"/>
  </g>
 </defs>
 <defs class="TextEmbeddedBitmaps"/>
 <g>
  <g id="id2" class="Master_Slide">
   <g id="bg-id2" class="Background"/>
   <g id="bo-id2" class="BackgroundObjects"/>
  </g>
 </g>
 <g class="SlideGroup">
  <g>
   <g id="id1" class="Slide" clip-path="url(#presentation_clip_path)">
    <g class="Page">
     <g class="com.sun.star.drawing.ClosedBezierShape">
      <g id="id3">
       <rect class="BoundingBox" stroke="none" fill="none" x="827" y="1308" width="497" height="509"/>
       <path fill="rgb(63,63,63)" stroke="none" d="M 961,1333 C 1081,1272 1231,1325 1294,1451 1357,1578 1311,1729 1190,1790 1069,1851 920,1798 855,1672 792,1545 839,1394 961,1333 Z"/>
      </g>
     </g>
     <g class="com.sun.star.drawing.ClosedBezierShape">
      <g id="id4">
       <rect class="BoundingBox" stroke="none" fill="none" x="996" y="217" width="3205" height="4184"/>
       <path fill="rgb(63,63,63)" stroke="none" d="M 2512,870 C 2463,802 2389,742 2298,699 2321,594 2341,501 2356,430 L 2651,651 2512,870 Z M 1913,1889 C 1890,1952 1811,2037 1719,2136 1696,2160 1673,2186 1648,2212 L 1602,2026 C 1601,2022 1599,2018 1598,2014 L 1762,1850 C 1765,1847 1768,1843 1770,1838 1775,1833 1779,1828 1781,1821 L 1907,1405 C 1917,1373 1915,1296 1865,1251 L 2108,734 C 2136,738 2164,743 2192,750 2098,1173 1968,1743 1913,1889 Z M 3970,217 L 2322,217 2210,321 2275,369 C 2259,440 2237,545 2211,665 1963,589 1720,669 1662,845 1661,849 1660,853 1659,858 1731,773 1860,727 2009,727 L 1776,1223 C 1713,1234 1651,1299 1641,1330 L 1521,1710 1391,1840 C 1343,1831 1292,1831 1240,1844 1074,1885 969,2033 1004,2174 L 1210,2952 C 1181,3075 1171,3209 1188,3356 1281,4149 1547,4376 1558,4386 L 1617,4315 C 1615,4312 1368,4095 1280,3345 1273,3290 1272,3238 1273,3187 1284,3218 1298,3230 1317,3230 1347,3253 1384,3267 1426,3268 L 2091,3278 2593,3646 C 2673,3705 2778,3699 2827,3632 2876,3565 2851,3464 2771,3405 L 2265,3034 C 2234,2992 2183,2965 2123,2964 L 2064,2963 2411,2879 2988,3111 C 3080,3148 3180,3115 3211,3038 3242,2962 3192,2869 3100,2832 L 2517,2599 C 2477,2567 2421,2553 2363,2567 L 1771,2710 1675,2321 C 1713,2278 1751,2237 1787,2199 1889,2089 1970,2002 2000,1922 2057,1770 2188,1202 2281,777 2363,806 2437,846 2498,893 L 2387,1068 2774,1623 2598,1988 3214,2751 3232,3289 3408,3688 3074,4348 C 3074,4348 3051,4367 3013,4400 L 3970,4400 C 4097,4400 4200,4298 4200,4173 L 4200,443 C 4200,318 4097,217 3970,217 Z"/>
      </g>
     </g>
    </g>
   </g>
  </g>
 </g>
</svg>