<?xml version="1.0" encoding="UTF-8"?>

<svg version="1.2" baseProfile="tiny" width="50mm" height="50mm" viewBox="0 0 5000 5000" preserveAspectRatio="xMidYMid" fill-rule="evenodd" stroke-width="28.222" stroke-linejoin="round" xmlns="http://www.w3.org/2000/svg" xmlns:ooo="http://xml.openoffice.org/svg/export" xmlns:xlink="http://www.w3.org/1999/xlink" xmlns:presentation="http://sun.com/xmlns/staroffice/presentation" xmlns:smil="http://www.w3.org/2001/SMIL20/" xmlns:anim="urn:oasis:names:tc:opendocument:xmlns:animation:1.0" xml:space="preserve">
 <defs class="ClipPathGroup">
  <clipPath id="presentation_clip_path" clipPathUnits="userSpaceOnUse">
   <rect x="0" y="0" width="5000" height="5000"/>
  </clipPath>
 </defs>
 <defs class="TextShapeIndex">
  <g ooo:slide="id1" ooo:id-list="id3 id4 id5 id6 id7 id8 id9 id10 id11 id12"/>
 </defs>
 <defs class="EmbeddedBulletChars">
  <g id="bullet-char-template(57356)" transform="scale(0.00048828125,-0.00048828125)">
   <path d="M 580,1141 L 1163,571 580,0 -4,571 580,1141 Z"/>
  </g>
  <g id="bullet-char-template(57354)" transform="scale(0.00048828125,-0.00048828125)">
   <path d="M 8,1128 L 1137,1128 1137,0 8,0 8,1128 Z"/>
  </g>
  <g id="bullet-char-template(10146)" transform="scale(0.00048828125,-0.00048828125)">
   <path d="M 174,0 L 602,739 174,1481 1456,739 174,0 Z M 1358,739 L 309,1346 659,739 1358,739 Z"/>
  </g>
  <g id="bullet-char-template(10132)" transform="scale(0.00048828125,-0.00048828125)">
   <path d="M 2015,739 L 1276,0 717,0 1260,543 174,543 174,936 1260,936 717,1481 1274,1481 2015,739 Z"/>
  </g>
  <g id="bullet-char-template(10007)" transform="scale(0.00048828125,-0.00048828125)">
   <path d="M 0,-2 C -7,14 -16,27 -25,37 L 356,567 C 262,823 215,952 215,954 215,979 228,992 255,992 264,992 276,990 289,987 310,991 331,999 354,1012 L 381,999 492,748 772,1049 836,1024 860,1049 C 881,1039 901,1025 922,1006 886,937 835,863 770,784 769,783 710,716 594,584 L 774,223 C 774,196 753,168 711,139 L 727,119 C 717,90 699,76 672,76 641,76 570,178 457,381 L 164,-76 C 142,-110 111,-127 72,-127 30,-127 9,-110 8,-76 1,-67 -2,-52 -2,-32 -2,-23 -1,-13 0,-2 Z"/>
  </g>
  <g id="bullet-char-template(10004)" transform="scale(0.00048828125,-0.00048828125)">
   <path d="M 285,-33 C 182,-33 111,30 74,156 52,228 41,333 41,471 41,549 55,616 82,672 116,743 169,778 240,778 293,778 328,747 346,684 L 369,508 C 377,444 397,411 428,410 L 1163,1116 C 1174,1127 1196,1133 1229,1133 1271,1133 1292,1118 1292,1087 L 1292,965 C 1292,929 1282,901 1262,881 L 442,47 C 390,-6 338,-33 285,-33 Z"/>
  </g>
  <g id="bullet-char-template(9679)" transform="scale(0.00048828125,-0.00048828125)">
   <path d="M 813,0 C 632,0 489,54 383,161 276,268 223,411 223,592 223,773 276,916 383,1023 489,1130 632,1184 813,1184 992,1184 1136,1130 1245,1023 1353,916 1407,772 1407,592 1407,412 1353,268 1245,161 1136,54 992,0 813,0 Z"/>
  </g>
  <g id="bullet-char-template(8226)" transform="scale(0.00048828125,-0.00048828125)">
   <path d="M 346,457 C 273,457 209,483 155,535 101,586 74,649 74,723 74,796 101,859 155,911 209,963 273,989 346,989 419,989 480,963 531,910 582,859 608,796 608,723 608,648 583,586 532,535 482,483 420,457 346,457 Z"/>
  </g>
  <g id="bullet-char-template(8211)" transform="scale(0.00048828125,-0.00048828125)">
   <path d="M -4,459 L 1135,459 1135,606 -4,606 -4,459 Z"/>
  </g>
 </defs>
 <defs class="TextEmbeddedBitmaps"/>
 <g>
  <g id="id2" class="Master_Slide">
   <g id="bg-id2" class="Background"/>
   <g id="bo-id2" class="BackgroundObjects"/>
  </g>
 </g>
 <g class="SlideGroup">
  <g>
   <g id="id1" class="Slide" clip-path="url(#presentation_clip_path)">
    <g class="Page">
     <g class="com.sun.star.drawing.ClosedBezierShape">
      <g id="id3">
       <rect class="BoundingBox" stroke="none" fill="none" x="577" y="2570" width="3015" height="804"/>
       <path fill="rgb(63,63,63)" stroke="none" d="M 3590,2571 C 3564,2847 3031,3400 2733,3371 L 892,3193 C 689,3174 554,2847 581,2572 L 3590,2571 Z"/>
      </g>
     </g>
     <g class="com.sun.star.drawing.ClosedBezierShape">
      <g id="id4">
       <rect class="BoundingBox" stroke="none" fill="none" x="1501" y="1709" width="778" height="1564"/>
       <path fill="rgb(63,63,63)" stroke="none" d="M 2112,3016 C 2083,3183 1925,3296 1758,3267 1589,3239 1477,3080 1505,2913 L 1667,1965 C 1696,1798 1854,1686 2022,1714 2189,1743 2301,1901 2273,2068 L 2112,3016 Z"/>
      </g>
     </g>
     <g class="com.sun.star.drawing.ClosedBezierShape">
      <g id="id5">
       <rect class="BoundingBox" stroke="none" fill="none" x="2025" y="1837" width="586" height="653"/>
       <path fill="rgb(63,63,63)" stroke="none" d="M 2580,2278 C 2625,2333 2618,2414 2564,2459 2509,2504 2429,2497 2383,2442 L 2055,2048 C 2009,1994 2017,1913 2071,1868 2125,1823 2206,1830 2251,1884 L 2580,2278 Z"/>
      </g>
     </g>
     <g class="com.sun.star.drawing.ClosedBezierShape">
      <g id="id6">
       <rect class="BoundingBox" stroke="none" fill="none" x="2361" y="2080" width="747" height="412"/>
       <path fill="rgb(63,63,63)" stroke="none" d="M 2941,2086 C 3008,2065 3080,2102 3101,2171 3122,2238 3085,2310 3017,2331 L 2528,2484 C 2461,2506 2388,2468 2367,2401 2346,2333 2383,2261 2452,2240 L 2941,2086 Z"/>
      </g>
     </g>
     <g class="com.sun.star.drawing.ClosedBezierShape">
      <g id="id7">
       <rect class="BoundingBox" stroke="none" fill="none" x="1820" y="1103" width="565" height="565"/>
       <path fill="rgb(63,63,63)" stroke="none" d="M 2102,1103 C 2258,1103 2384,1230 2384,1386 2384,1541 2258,1667 2102,1667 1946,1667 1820,1541 1820,1386 1820,1230 1946,1103 2102,1103 Z"/>
      </g>
     </g>
     <g class="com.sun.star.drawing.PolyPolygonShape">
      <g id="id8">
       <rect class="BoundingBox" stroke="none" fill="none" x="4361" y="777" width="28" height="1641"/>
       <path fill="rgb(63,63,63)" stroke="none" d="M 4361,778 L 4388,778 4388,2417 4361,2417 4361,778 Z"/>
      </g>
     </g>
     <g class="com.sun.star.drawing.ClosedBezierShape">
      <g id="id9">
       <rect class="BoundingBox" stroke="none" fill="none" x="4346" y="2388" width="255" height="562"/>
       <path fill="rgb(63,63,63)" stroke="none" d="M 4404,2797 C 4404,2845 4424,2892 4472,2892 4521,2892 4541,2845 4541,2797 L 4541,2637 C 4541,2621 4555,2608 4571,2608 4587,2608 4600,2621 4600,2637 L 4600,2825 C 4600,2890 4547,2949 4482,2949 L 4463,2949 C 4398,2949 4346,2890 4346,2825 L 4346,2417 C 4346,2401 4359,2388 4375,2388 4391,2388 4404,2401 4404,2417 L 4404,2797 Z"/>
      </g>
     </g>
     <g class="com.sun.star.drawing.PolyPolygonShape">
      <g id="id10">
       <rect class="BoundingBox" stroke="none" fill="none" x="4485" y="2525" width="116" height="201"/>
       <path fill="rgb(63,63,63)" stroke="none" d="M 4600,2725 L 4600,2525 4485,2725 4600,2725 Z"/>
      </g>
     </g>
     <g class="com.sun.star.drawing.ClosedBezierShape">
      <g id="id11">
       <rect class="BoundingBox" stroke="none" fill="none" x="3071" y="778" width="1302" height="1386"/>
       <path fill="rgb(63,63,63)" stroke="none" d="M 3071,2163 C 3071,2163 3226,1758 3603,1358 3979,958 4372,778 4372,778 4372,778 4020,840 3569,1320 3120,1797 3071,2163 3071,2163 Z"/>
      </g>
     </g>
     <g class="com.sun.star.drawing.ClosedBezierShape">
      <g id="id12">
       <rect class="BoundingBox" stroke="none" fill="none" x="413" y="2896" width="3436" height="805"/>
       <path fill="rgb(63,63,63)" stroke="none" d="M 3848,2896 C 3848,2896 3594,3714 2659,3660 2082,3627 985,3148 413,3700 714,3097 1618,3044 2151,3152 2691,3261 3319,3565 3848,2896 Z"/>
      </g>
     </g>
    </g>
   </g>
  </g>
 </g>
</svg>