<?xml version="1.0" encoding="UTF-8"?>

<svg version="1.2" baseProfile="tiny" width="50mm" height="50mm" viewBox="0 0 5000 5000" preserveAspectRatio="xMidYMid" fill-rule="evenodd" stroke-width="28.222" stroke-linejoin="round" xmlns="http://www.w3.org/2000/svg" xmlns:ooo="http://xml.openoffice.org/svg/export" xmlns:xlink="http://www.w3.org/1999/xlink" xmlns:presentation="http://sun.com/xmlns/staroffice/presentation" xmlns:smil="http://www.w3.org/2001/SMIL20/" xmlns:anim="urn:oasis:names:tc:opendocument:xmlns:animation:1.0" xml:space="preserve">
 <defs class="ClipPathGroup">
  <clipPath id="presentation_clip_path" clipPathUnits="userSpaceOnUse">
   <rect x="0" y="0" width="5000" height="5000"/>
  </clipPath>
 </defs>
 <defs class="TextShapeIndex">
  <g ooo:slide="id1" ooo:id-list="id3 id4 id5"/>
 </defs>
 <defs class="EmbeddedBulletChars">
  <g id="bullet-char-template(57356)" transform="scale(0.00048828125,-0.00048828125)">
   <path d="M 580,1141 L 1163,571 580,0 -4,571 580,1141 Z"/>
  </g>
  <g id="bullet-char-template(57354)" transform="scale(0.00048828125,-0.00048828125)">
   <path d="M 8,1128 L 1137,1128 1137,0 8,0 8,1128 Z"/>
  </g>
  <g id="bullet-char-template(10146)" transform="scale(0.00048828125,-0.00048828125)">
   <path d="M 174,0 L 602,739 174,1481 1456,739 174,0 Z M 1358,739 L 309,1346 659,739 1358,739 Z"/>
  </g>
  <g id="bullet-char-template(10132)" transform="scale(0.00048828125,-0.00048828125)">
   <path d="M 2015,739 L 1276,0 717,0 1260,543 174,543 174,936 1260,936 717,1481 1274,1481 2015,739 Z"/>
  </g>
  <g id="bullet-char-template(10007)" transform="scale(0.00048828125,-0.00048828125)">
   <path d="M 0,-2 C -7,14 -16,27 -25,37 L 356,567 C 262,823 215,952 215,954 215,979 228,992 255,992 264,992 276,990 289,987 310,991 331,999 354,1012 L 381,999 492,748 772,1049 836,1024 860,1049 C 881,1039 901,1025 922,1006 886,937 835,863 770,784 769,783 710,716 594,584 L 774,223 C 774,196 753,168 711,139 L 727,119 C 717,90 699,76 672,76 641,76 570,178 457,381 L 164,-76 C 142,-110 111,-127 72,-127 30,-127 9,-110 8,-76 1,-67 -2,-52 -2,-32 -2,-23 -1,-13 0,-2 Z"/>
  </g>
  <g id="bullet-char-template(10004)" transform="scale(0.00048828125,-0.00048828125)">
   <path d="M 285,-33 C 182,-33 111,30 74,156 52,228 41,333 41,471 41,549 55,616 82,672 116,743 169,778 240,778 293,778 328,747 346,684 L 369,508 C 377,444 397,411 428,410 L 1163,1116 C 1174,1127 1196,1133 1229,1133 1271,1133 1292,1118 1292,1087 L 1292,965 C 1292,929 1282,901 1262,881 L 442,47 C 390,-6 338,-33 285,-33 Z"/>
  </g>
  <g id="bullet-char-template(9679)" transform="scale(0.00048828125,-0.00048828125)">
   <path d="M 813,0 C 632,0 489,54 383,161 276,268 223,411 223,592 223,773 276,916 383,1023 489,1130 632,1184 813,1184 992,1184 1136,1130 1245,1023 1353,916 1407,772 1407,592 1407,412 1353,268 1245,161 1136,54 992,0 813,0 Z"/>
  </g>
  <g id="bullet-char-template(8226)" transform="scale(0.00048828125,-0.00048828125)">
   <path d="M 346,457 C 273,457 209,483 155,535 101,586 74,649 74,723 74,796 101,859 155,911 209,963 273,989 346,989 419,989 480,963 531,910 582,859 608,796 608,723 608,648 583,586 532,535 482,483 420,457 346,457 Z"/>
  </g>
  <g id="bullet-char-template(8211)" transform="scale(0.00048828125,-0.00048828125)">
   <path d="M -4,459 L 1135,459 1135,606 -4,606 -4,459 Z"/>
  </g>
 </defs>
 <defs class="TextEmbeddedBitmaps"/>
 <g>
  <g id="id2" class="Master_Slide">
   <g id="bg-id2" class="Background"/>
   <g id="bo-id2" class="BackgroundObjects"/>
  </g>
 </g>
 <g class="SlideGroup">
  <g>
   <g id="id1" class="Slide" clip-path="url(#presentation_clip_path)">
    <g class="Page">
     <g class="com.sun.star.drawing.ClosedBezierShape">
      <g id="id3">
       <rect class="BoundingBox" stroke="none" fill="none" x="500" y="1114" width="3965" height="3200"/>
       <path fill="rgb(63,63,63)" stroke="none" d="M 3124,2130 C 3079,2190 3009,2225 2935,2225 L 2760,2225 C 2755,2217 2749,2210 2742,2205 L 2374,1921 C 2364,1913 2361,1899 2367,1888 L 2409,1813 2474,1697 C 2480,1688 2493,1687 2500,1695 L 2614,1826 C 2632,1846 2660,1855 2686,1847 L 2857,1797 2901,1785 3192,2039 3124,2130 Z M 4435,1969 L 3827,1493 C 3867,1358 3807,1246 3807,1246 L 3788,1233 3534,1581 3272,1931 3039,1728 C 3043,1718 3044,1708 3042,1697 L 3028,1639 C 3022,1614 2999,1597 2973,1598 L 2750,1614 C 2737,1614 2726,1606 2724,1593 L 2673,1253 C 2670,1232 2657,1213 2638,1203 L 2490,1123 C 2459,1107 2420,1117 2401,1146 L 2372,1191 2010,1745 C 1927,1872 1960,2042 2084,2128 L 2224,2225 2394,2344 C 2405,2352 2414,2365 2416,2379 L 2507,2863 C 2442,2861 2386,2815 2371,2752 L 2285,2408 C 2281,2394 2273,2382 2261,2375 L 2018,2225 1778,2225 1156,2225 C 929,2225 734,2385 687,2607 683,2628 680,2649 678,2669 659,2857 651,3045 500,3146 500,3146 913,3276 1023,2908 1104,2637 1007,2427 1229,2377 1199,2418 1177,2465 1162,2513 1112,2682 1156,2865 1276,2993 L 1436,3162 C 1442,3169 1442,3178 1437,3185 L 1335,3303 C 1323,3318 1319,3337 1323,3355 L 1577,4284 C 1582,4301 1597,4313 1615,4313 L 1819,4313 C 1834,4313 1846,4299 1843,4283 L 1703,3444 C 1701,3435 1703,3425 1708,3417 L 1822,3214 C 1827,3206 1835,3201 1844,3201 L 2541,3201 C 2550,3201 2559,3206 2564,3214 L 2751,3520 C 2756,3528 2758,3538 2757,3547 L 2687,4283 C 2686,4299 2698,4312 2714,4312 L 2868,4312 C 2885,4312 2900,4300 2904,4284 L 3141,3285 C 3143,3277 3151,3272 3159,3274 L 3219,3287 C 3227,3289 3232,3297 3231,3305 L 3164,3716 C 3161,3735 3160,3755 3162,3775 L 3220,4283 C 3222,4300 3236,4313 3253,4313 L 3387,4313 C 3403,4313 3416,4300 3416,4283 L 3416,3053 C 3416,3044 3418,3034 3422,3025 L 3780,2196 C 3794,2162 3832,2146 3866,2157 3932,2179 4042,2203 4151,2171 4160,2168 4170,2170 4177,2174 L 4251,2221 C 4284,2242 4327,2234 4350,2203 L 4449,2072 C 4473,2040 4467,1994 4435,1969 Z"/>
      </g>
     </g>
     <g class="com.sun.star.drawing.ClosedBezierShape">
      <g id="id4">
       <rect class="BoundingBox" stroke="none" fill="none" x="963" y="3054" width="295" height="1242"/>
       <path fill="rgb(63,63,63)" stroke="none" d="M 1257,4265 L 1257,3879 C 1257,3859 1254,3839 1251,3820 L 1162,3392 C 1160,3383 1161,3373 1165,3364 L 1238,3200 C 1245,3184 1242,3164 1230,3151 L 1147,3061 C 1137,3050 1119,3052 1111,3064 L 976,3287 C 966,3304 962,3323 964,3342 L 1040,4265 C 1041,4281 1055,4294 1072,4294 L 1227,4294 C 1243,4294 1257,4281 1257,4265 Z"/>
      </g>
     </g>
     <g class="com.sun.star.drawing.ClosedBezierShape">
      <g id="id5">
       <rect class="BoundingBox" stroke="none" fill="none" x="2472" y="500" width="581" height="581"/>
       <path fill="rgb(63,63,63)" stroke="none" d="M 2762,500 C 2922,500 3052,629 3052,789 3052,950 2922,1080 2762,1080 2602,1080 2472,950 2472,789 2472,629 2602,500 2762,500 Z"/>
      </g>
     </g>
    </g>
   </g>
  </g>
 </g>
</svg>