<?xml version="1.0" encoding="UTF-8"?>

<svg version="1.2" baseProfile="tiny" width="50mm" height="50mm" viewBox="0 0 5000 5000" preserveAspectRatio="xMidYMid" fill-rule="evenodd" stroke-width="28.222" stroke-linejoin="round" xmlns="http://www.w3.org/2000/svg" xmlns:ooo="http://xml.openoffice.org/svg/export" xmlns:xlink="http://www.w3.org/1999/xlink" xmlns:presentation="http://sun.com/xmlns/staroffice/presentation" xmlns:smil="http://www.w3.org/2001/SMIL20/" xmlns:anim="urn:oasis:names:tc:opendocument:xmlns:animation:1.0" xml:space="preserve">
 <defs class="ClipPathGroup">
  <clipPath id="presentation_clip_path" clipPathUnits="userSpaceOnUse">
   <rect x="0" y="0" width="5000" height="5000"/>
  </clipPath>
 </defs>
 <defs class="TextShapeIndex">
  <g ooo:slide="id1" ooo:id-list="id3 id4 id5"/>
 </defs>
 <defs class="EmbeddedBulletChars">
  <g id="bullet-char-template(57356)" transform="scale(0.00048828125,-0.00048828125)">
   <path d="M 580,1141 L 1163,571 580,0 -4,571 580,1141 Z"/>
  </g>
  <g id="bullet-char-template(57354)" transform="scale(0.00048828125,-0.00048828125)">
   <path d="M 8,1128 L 1137,1128 1137,0 8,0 8,1128 Z"/>
  </g>
  <g id="bullet-char-template(10146)" transform="scale(0.00048828125,-0.00048828125)">
   <path d="M 174,0 L 602,739 174,1481 1456,739 174,0 Z M 1358,739 L 309,1346 659,739 1358,739 Z"/>
  </g>
  <g id="bullet-char-template(10132)" transform="scale(0.00048828125,-0.00048828125)">
   <path d="M 2015,739 L 1276,0 717,0 1260,543 174,543 174,936 1260,936 717,1481 1274,1481 2015,739 Z"/>
  </g>
  <g id="bullet-char-template(10007)" transform="scale(0.00048828125,-0.00048828125)">
   <path d="M 0,-2 C -7,14 -16,27 -25,37 L 356,567 C 262,823 215,952 215,954 215,979 228,992 255,992 264,992 276,990 289,987 310,991 331,999 354,1012 L 381,999 492,748 772,1049 836,1024 860,1049 C 881,1039 901,1025 922,1006 886,937 835,863 770,784 769,783 710,716 594,584 L 774,223 C 774,196 753,168 711,139 L 727,119 C 717,90 699,76 672,76 641,76 570,178 457,381 L 164,-76 C 142,-110 111,-127 72,-127 30,-127 9,-110 8,-76 1,-67 -2,-52 -2,-32 -2,-23 -1,-13 0,-2 Z"/>
  </g>
  <g id="bullet-char-template(10004)" transform="scale(0.00048828125,-0.00048828125)">
   <path d="M 285,-33 C 182,-33 111,30 74,156 52,228 41,333 41,471 41,549 55,616 82,672 116,743 169,778 240,778 293,778 328,747 346,684 L 369,508 C 377,444 397,411 428,410 L 1163,1116 C 1174,1127 1196,1133 1229,1133 1271,1133 1292,1118 1292,1087 L 1292,965 C 1292,929 1282,901 1262,881 L 442,47 C 390,-6 338,-33 285,-33 Z"/>
  </g>
  <g id="bullet-char-template(9679)" transform="scale(0.00048828125,-0.00048828125)">
   <path d="M 813,0 C 632,0 489,54 383,161 276,268 223,411 223,592 223,773 276,916 383,1023 489,1130 632,1184 813,1184 992,1184 1136,1130 1245,1023 1353,916 1407,772 1407,592 1407,412 1353,268 1245,161 1136,54 992,0 813,0 Z"/>
  </g>
  <g id="bullet-char-template(8226)" transform="scale(0.00048828125,-0.00048828125)">
   <path d="M 346,457 C 273,457 209,483 155,535 101,586 74,649 74,723 74,796 101,859 155,911 209,963 273,989 346,989 419,989 480,963 531,910 582,859 608,796 608,723 608,648 583,586 532,535 482,483 420,457 346,457 Z"/>
  </g>
  <g id="bullet-char-template(8211)" transform="scale(0.00048828125,-0.00048828125)">
   <path d="M -4,459 L 1135,459 1135,606 -4,606 -4,459 Z"/>
  </g>
 </defs>
 <defs class="TextEmbeddedBitmaps"/>
 <g>
  <g id="id2" class="Master_Slide">
   <g id="bg-id2" class="Background"/>
   <g id="bo-id2" class="BackgroundObjects"/>
  </g>
 </g>
 <g class="SlideGroup">
  <g>
   <g id="id1" class="Slide" clip-path="url(#presentation_clip_path)">
    <g class="Page">
     <g class="com.sun.star.drawing.ClosedBezierShape">
      <g id="id3">
       <rect class="BoundingBox" stroke="none" fill="none" x="3224" y="3237" width="1079" height="861"/>
       <path fill="rgb(63,63,63)" stroke="none" d="M 3237,4097 C 3610,4052 3933,3974 4171,3904 4244,3883 4297,3815 4301,3736 4306,3656 4263,3582 4193,3550 3966,3450 3658,3330 3297,3237 L 3286,3275 3224,3485 3323,3805 3276,3965 3237,4097 Z"/>
      </g>
     </g>
     <g class="com.sun.star.drawing.ClosedBezierShape">
      <g id="id4">
       <rect class="BoundingBox" stroke="none" fill="none" x="2555" y="402" width="602" height="633"/>
       <path fill="rgb(63,63,63)" stroke="none" d="M 2856,402 C 3022,402 3156,544 3156,718 3156,893 3022,1034 2856,1034 2689,1034 2555,893 2555,718 2555,544 2689,402 2856,402 Z"/>
      </g>
     </g>
     <g class="com.sun.star.drawing.ClosedBezierShape">
      <g id="id5">
       <rect class="BoundingBox" stroke="none" fill="none" x="443" y="762" width="3450" height="3839"/>
       <path fill="rgb(63,63,63)" stroke="none" d="M 3489,1612 L 3385,1966 3145,1877 2982,1612 3489,1612 Z M 2721,3125 L 2778,2972 C 2807,2894 2792,2805 2738,2743 L 2350,2288 2530,1991 2620,1843 2829,2182 C 2854,2224 2892,2255 2936,2271 L 3238,2383 3260,2391 3029,3177 C 2930,3157 2827,3139 2721,3125 Z M 3198,3214 L 3888,865 C 3899,829 3879,790 3844,779 L 3840,777 3806,766 C 3790,761 3772,763 3756,771 3741,780 3729,794 3724,812 L 3607,1210 2648,1210 C 2638,1209 2628,1208 2619,1208 L 2618,1208 C 2608,1208 2599,1209 2590,1210 L 2587,1210 2587,1211 C 2567,1214 2547,1221 2528,1230 2492,1248 2461,1275 2439,1311 L 1908,2192 C 1868,2257 1865,2337 1894,2405 1903,2424 1914,2443 1929,2460 L 2156,2727 2336,2938 2280,3086 2133,3480 1977,3415 2101,3082 C 2049,3082 1997,3083 1946,3085 L 2082,2852 1815,2540 1475,3122 C 1115,3167 804,3242 573,3309 500,3331 448,3399 443,3478 438,3558 482,3632 551,3663 945,3840 1591,4072 2335,4122 2409,4127 2483,4130 2556,4132 L 2467,4432 2984,4600 3006,4523 3128,4109 3157,4011 3204,3851 3104,3532 3166,3322 3198,3214 Z"/>
      </g>
     </g>
    </g>
   </g>
  </g>
 </g>
</svg>