<?xml version="1.0" encoding="UTF-8"?>

<svg version="1.2" baseProfile="tiny" width="50mm" height="50mm" viewBox="0 0 5000 5000" preserveAspectRatio="xMidYMid" fill-rule="evenodd" stroke-width="28.222" stroke-linejoin="round" xmlns="http://www.w3.org/2000/svg" xmlns:ooo="http://xml.openoffice.org/svg/export" xmlns:xlink="http://www.w3.org/1999/xlink" xmlns:presentation="http://sun.com/xmlns/staroffice/presentation" xmlns:smil="http://www.w3.org/2001/SMIL20/" xmlns:anim="urn:oasis:names:tc:opendocument:xmlns:animation:1.0" xml:space="preserve">
 <defs class="ClipPathGroup">
  <clipPath id="presentation_clip_path" clipPathUnits="userSpaceOnUse">
   <rect x="0" y="0" width="5000" height="5000"/>
  </clipPath>
 </defs>
 <defs class="TextShapeIndex">
  <g ooo:slide="id1" ooo:id-list="id3 id4 id5 id6 id7 id8 id9 id10 id11 id12 id13"/>
 </defs>
 <defs class="EmbeddedBulletChars">
  <g id="bullet-char-template(57356)" transform="scale(0.00048828125,-0.00048828125)">
   <path d="M 580,1141 L 1163,571 580,0 -4,571 580,1141 Z"/>
  </g>
  <g id="bullet-char-template(57354)" transform="scale(0.00048828125,-0.00048828125)">
   <path d="M 8,1128 L 1137,1128 1137,0 8,0 8,1128 Z"/>
  </g>
  <g id="bullet-char-template(10146)" transform="scale(0.00048828125,-0.00048828125)">
   <path d="M 174,0 L 602,739 174,1481 1456,739 174,0 Z M 1358,739 L 309,1346 659,739 1358,739 Z"/>
  </g>
  <g id="bullet-char-template(10132)" transform="scale(0.00048828125,-0.00048828125)">
   <path d="M 2015,739 L 1276,0 717,0 1260,543 174,543 174,936 1260,936 717,1481 1274,1481 2015,739 Z"/>
  </g>
  <g id="bullet-char-template(10007)" transform="scale(0.00048828125,-0.00048828125)">
   <path d="M 0,-2 C -7,14 -16,27 -25,37 L 356,567 C 262,823 215,952 215,954 215,979 228,992 255,992 264,992 276,990 289,987 310,991 331,999 354,1012 L 381,999 492,748 772,1049 836,1024 860,1049 C 881,1039 901,1025 922,1006 886,937 835,863 770,784 769,783 710,716 594,584 L 774,223 C 774,196 753,168 711,139 L 727,119 C 717,90 699,76 672,76 641,76 570,178 457,381 L 164,-76 C 142,-110 111,-127 72,-127 30,-127 9,-110 8,-76 1,-67 -2,-52 -2,-32 -2,-23 -1,-13 0,-2 Z"/>
  </g>
  <g id="bullet-char-template(10004)" transform="scale(0.00048828125,-0.00048828125)">
   <path d="M 285,-33 C 182,-33 111,30 74,156 52,228 41,333 41,471 41,549 55,616 82,672 116,743 169,778 240,778 293,778 328,747 346,684 L 369,508 C 377,444 397,411 428,410 L 1163,1116 C 1174,1127 1196,1133 1229,1133 1271,1133 1292,1118 1292,1087 L 1292,965 C 1292,929 1282,901 1262,881 L 442,47 C 390,-6 338,-33 285,-33 Z"/>
  </g>
  <g id="bullet-char-template(9679)" transform="scale(0.00048828125,-0.00048828125)">
   <path d="M 813,0 C 632,0 489,54 383,161 276,268 223,411 223,592 223,773 276,916 383,1023 489,1130 632,1184 813,1184 992,1184 1136,1130 1245,1023 1353,916 1407,772 1407,592 1407,412 1353,268 1245,161 1136,54 992,0 813,0 Z"/>
  </g>
  <g id="bullet-char-template(8226)" transform="scale(0.00048828125,-0.00048828125)">
   <path d="M 346,457 C 273,457 209,483 155,535 101,586 74,649 74,723 74,796 101,859 155,911 209,963 273,989 346,989 419,989 480,963 531,910 582,859 608,796 608,723 608,648 583,586 532,535 482,483 420,457 346,457 Z"/>
  </g>
  <g id="bullet-char-template(8211)" transform="scale(0.00048828125,-0.00048828125)">
   <path d="M -4,459 L 1135,459 1135,606 -4,606 -4,459 Z"/>
  </g>
 </defs>
 <defs class="TextEmbeddedBitmaps"/>
 <g>
  <g id="id2" class="Master_Slide">
   <g id="bg-id2" class="Background"/>
   <g id="bo-id2" class="BackgroundObjects"/>
  </g>
 </g>
 <g class="SlideGroup">
  <g>
   <g id="id1" class="Slide" clip-path="url(#presentation_clip_path)">
    <g class="Page">
     <g class="com.sun.star.drawing.ClosedBezierShape">
      <g id="id3">
       <rect class="BoundingBox" stroke="none" fill="none" x="499" y="399" width="4038" height="1727"/>
       <path fill="rgb(63,63,63)" stroke="none" d="M 2518,911 C 3457,911 4245,1417 4471,2102 4482,2137 4529,2130 4532,2094 4535,2061 4536,2027 4536,1993 4536,1114 3633,400 2518,400 1404,400 500,1114 500,1993 500,2027 502,2061 504,2094 507,2130 554,2136 565,2102 791,1417 1579,911 2518,911 Z"/>
      </g>
     </g>
     <g class="com.sun.star.drawing.ClosedBezierShape">
      <g id="id4">
       <rect class="BoundingBox" stroke="none" fill="none" x="1798" y="2510" width="1442" height="1663"/>
       <path fill="rgb(63,63,63)" stroke="none" d="M 3224,2772 C 3215,2713 3159,2672 3100,2680 3040,2689 2999,2744 3008,2804 3045,3060 2986,3100 2984,3102 2953,3121 2860,3089 2800,3048 2786,3039 2770,3033 2754,3031 2745,3029 2736,3027 2726,3027 L 2609,3027 C 2698,2987 2760,2891 2760,2779 2760,2630 2650,2510 2514,2510 2379,2510 2269,2630 2269,2779 2269,2891 2331,2987 2420,3027 L 2322,3027 C 2301,3027 2280,3034 2263,3045 2253,3048 2244,3052 2235,3058 2184,3093 2085,3132 2052,3111 2050,3110 1991,3070 2029,2814 2038,2754 1996,2698 1937,2690 1877,2681 1822,2722 1813,2782 1773,3051 1813,3219 1937,3296 1981,3324 2029,3335 2077,3335 2102,3335 2126,3332 2150,3327 L 2053,3675 C 2023,3807 2057,3936 2130,4030 L 2152,3859 C 2164,3769 2238,3701 2326,3701 2332,3701 2338,3702 2345,3702 2389,3707 2428,3730 2456,3765 2486,3803 2499,3850 2492,3899 L 2457,4172 2600,4172 2571,3898 C 2561,3801 2629,3712 2723,3699 2730,3698 2738,3697 2746,3697 2832,3697 2904,3764 2913,3852 L 2930,4015 C 2996,3923 3025,3800 2997,3675 L 2897,3320 C 2917,3323 2937,3325 2958,3325 3007,3325 3055,3315 3100,3287 3223,3210 3263,3042 3224,2772 Z"/>
      </g>
     </g>
     <g class="com.sun.star.drawing.ClosedBezierShape">
      <g id="id5">
       <rect class="BoundingBox" stroke="none" fill="none" x="2128" y="3731" width="337" height="712"/>
       <path fill="rgb(63,63,63)" stroke="none" d="M 2342,3732 C 2337,3731 2331,3731 2326,3731 2255,3731 2193,3787 2183,3862 L 2158,4061 2130,4279 C 2119,4360 2173,4432 2250,4441 2255,4442 2260,4442 2266,4442 2337,4442 2399,4386 2409,4311 L 2462,3894 C 2473,3813 2419,3741 2342,3732 Z"/>
      </g>
     </g>
     <g class="com.sun.star.drawing.ClosedBezierShape">
      <g id="id6">
       <rect class="BoundingBox" stroke="none" fill="none" x="2602" y="3727" width="325" height="711"/>
       <path fill="rgb(63,63,63)" stroke="none" d="M 2903,4050 L 2883,3854 C 2874,3781 2815,3727 2746,3727 2740,3727 2733,3727 2727,3728 2650,3739 2594,3813 2603,3893 L 2631,4172 2645,4309 C 2653,4383 2712,4437 2781,4437 2787,4437 2794,4436 2800,4435 2877,4425 2934,4351 2925,4270 L 2903,4050 Z"/>
      </g>
     </g>
     <g class="com.sun.star.drawing.ClosedBezierShape">
      <g id="id7">
       <rect class="BoundingBox" stroke="none" fill="none" x="2653" y="3807" width="90" height="114"/>
       <path fill="rgb(63,63,63)" stroke="none" d="M 2660,3903 C 2670,3909 2682,3915 2694,3920 L 2742,3869 C 2742,3853 2741,3832 2737,3807 L 2653,3899 C 2656,3900 2658,3901 2660,3903 Z"/>
      </g>
     </g>
     <g class="com.sun.star.drawing.PolyPolygonShape">
      <g id="id8">
       <rect class="BoundingBox" stroke="none" fill="none" x="583" y="1829" width="1246" height="972"/>
       <path fill="rgb(63,63,63)" stroke="none" d="M 1799,2800 L 583,1867 612,1829 1828,2762 1799,2800 Z"/>
      </g>
     </g>
     <g class="com.sun.star.drawing.PolyPolygonShape">
      <g id="id9">
       <rect class="BoundingBox" stroke="none" fill="none" x="3182" y="1808" width="1343" height="997"/>
       <path fill="rgb(63,63,63)" stroke="none" d="M 3210,2803 L 3182,2763 4496,1808 4524,1847 3210,2803 Z"/>
      </g>
     </g>
     <g class="com.sun.star.drawing.PolyPolygonShape">
      <g id="id10">
       <rect class="BoundingBox" stroke="none" fill="none" x="1232" y="1203" width="728" height="1498"/>
       <path fill="rgb(63,63,63)" stroke="none" d="M 1916,2700 L 1232,1223 1276,1203 1959,2680 1916,2700 Z"/>
      </g>
     </g>
     <g class="com.sun.star.drawing.PolyPolygonShape">
      <g id="id11">
       <rect class="BoundingBox" stroke="none" fill="none" x="3082" y="1207" width="727" height="1497"/>
       <path fill="rgb(63,63,63)" stroke="none" d="M 3126,2703 L 3083,2683 3765,1207 3808,1227 3126,2703 Z"/>
      </g>
     </g>
     <g class="com.sun.star.drawing.PolyPolygonShape">
      <g id="id12">
       <rect class="BoundingBox" stroke="none" fill="none" x="2675" y="941" width="438" height="1818"/>
       <path fill="rgb(63,63,63)" stroke="none" d="M 3065,2758 L 2675,951 2722,941 3112,2748 3065,2758 Z"/>
      </g>
     </g>
     <g class="com.sun.star.drawing.PolyPolygonShape">
      <g id="id13">
       <rect class="BoundingBox" stroke="none" fill="none" x="1910" y="921" width="439" height="1819"/>
       <path fill="rgb(63,63,63)" stroke="none" d="M 1957,2739 L 1910,2728 2301,922 2348,932 1957,2739 Z"/>
      </g>
     </g>
    </g>
   </g>
  </g>
 </g>
</svg>