<?xml version="1.0" encoding="UTF-8"?>

<svg version="1.2" baseProfile="tiny" width="50mm" height="50mm" viewBox="0 0 5000 5000" preserveAspectRatio="xMidYMid" fill-rule="evenodd" stroke-width="28.222" stroke-linejoin="round" xmlns="http://www.w3.org/2000/svg" xmlns:ooo="http://xml.openoffice.org/svg/export" xmlns:xlink="http://www.w3.org/1999/xlink" xmlns:presentation="http://sun.com/xmlns/staroffice/presentation" xmlns:smil="http://www.w3.org/2001/SMIL20/" xmlns:anim="urn:oasis:names:tc:opendocument:xmlns:animation:1.0" xml:space="preserve">
 <defs class="ClipPathGroup">
  <clipPath id="presentation_clip_path" clipPathUnits="userSpaceOnUse">
   <rect x="0" y="0" width="5000" height="5000"/>
  </clipPath>
 </defs>
 <defs class="TextShapeIndex">
  <g ooo:slide="id1" ooo:id-list="id3 id4 id5"/>
 </defs>
 <defs class="EmbeddedBulletChars">
  <g id="bullet-char-template(57356)" transform="scale(0.00048828125,-0.00048828125)">
   <path d="M 580,1141 L 1163,571 580,0 -4,571 580,1141 Z"/>
  </g>
  <g id="bullet-char-template(57354)" transform="scale(0.00048828125,-0.00048828125)">
   <path d="M 8,1128 L 1137,1128 1137,0 8,0 8,1128 Z"/>
  </g>
  <g id="bullet-char-template(10146)" transform="scale(0.00048828125,-0.00048828125)">
   <path d="M 174,0 L 602,739 174,1481 1456,739 174,0 Z M 1358,739 L 309,1346 659,739 1358,739 Z"/>
  </g>
  <g id="bullet-char-template(10132)" transform="scale(0.00048828125,-0.00048828125)">
   <path d="M 2015,739 L 1276,0 717,0 1260,543 174,543 174,936 1260,936 717,1481 1274,1481 2015,739 Z"/>
  </g>
  <g id="bullet-char-template(10007)" transform="scale(0.00048828125,-0.00048828125)">
   <path d="M 0,-2 C -7,14 -16,27 -25,37 L 356,567 C 262,823 215,952 215,954 215,979 228,992 255,992 264,992 276,990 289,987 310,991 331,999 354,1012 L 381,999 492,748 772,1049 836,1024 860,1049 C 881,1039 901,1025 922,1006 886,937 835,863 770,784 769,783 710,716 594,584 L 774,223 C 774,196 753,168 711,139 L 727,119 C 717,90 699,76 672,76 641,76 570,178 457,381 L 164,-76 C 142,-110 111,-127 72,-127 30,-127 9,-110 8,-76 1,-67 -2,-52 -2,-32 -2,-23 -1,-13 0,-2 Z"/>
  </g>
  <g id="bullet-char-template(10004)" transform="scale(0.00048828125,-0.00048828125)">
   <path d="M 285,-33 C 182,-33 111,30 74,156 52,228 41,333 41,471 41,549 55,616 82,672 116,743 169,778 240,778 293,778 328,747 346,684 L 369,508 C 377,444 397,411 428,410 L 1163,1116 C 1174,1127 1196,1133 1229,1133 1271,1133 1292,1118 1292,1087 L 1292,965 C 1292,929 1282,901 1262,881 L 442,47 C 390,-6 338,-33 285,-33 Z"/>
  </g>
  <g id="bullet-char-template(9679)" transform="scale(0.00048828125,-0.00048828125)">
   <path d="M 813,0 C 632,0 489,54 383,161 276,268 223,411 223,592 223,773 276,916 383,1023 489,1130 632,1184 813,1184 992,1184 1136,1130 1245,1023 1353,916 1407,772 1407,592 1407,412 1353,268 1245,161 1136,54 992,0 813,0 Z"/>
  </g>
  <g id="bullet-char-template(8226)" transform="scale(0.00048828125,-0.00048828125)">
   <path d="M 346,457 C 273,457 209,483 155,535 101,586 74,649 74,723 74,796 101,859 155,911 209,963 273,989 346,989 419,989 480,963 531,910 582,859 608,796 608,723 608,648 583,586 532,535 482,483 420,457 346,457 Z"/>
  </g>
  <g id="bullet-char-template(8211)" transform="scale(0.00048828125,-0.00048828125)">
   <path d="M -4,459 L 1135,459 1135,606 -4,606 -4,459 Z"/>
  </g>
 </defs>
 <defs class="TextEmbeddedBitmaps"/>
 <g>
  <g id="id2" class="Master_Slide">
   <g id="bg-id2" class="Background"/>
   <g id="bo-id2" class="BackgroundObjects"/>
  </g>
 </g>
 <g class="SlideGroup">
  <g>
   <g id="id1" class="Slide" clip-path="url(#presentation_clip_path)">
    <g class="Page">
     <g class="com.sun.star.drawing.ClosedBezierShape">
      <g id="id3">
       <rect class="BoundingBox" stroke="none" fill="none" x="3108" y="700" width="592" height="591"/>
       <path fill="rgb(63,63,63)" stroke="none" d="M 3404,700 C 3567,700 3699,832 3699,995 3699,1158 3567,1290 3404,1290 3241,1290 3108,1158 3108,995 3108,832 3241,700 3404,700 Z"/>
      </g>
     </g>
     <g class="com.sun.star.drawing.ClosedBezierShape">
      <g id="id4">
       <rect class="BoundingBox" stroke="none" fill="none" x="1534" y="790" width="1970" height="1599"/>
       <path fill="rgb(63,63,63)" stroke="none" d="M 2837,1727 L 2834,1746 C 2833,1751 2833,1757 2833,1762 L 2814,1747 2837,1727 Z M 1628,981 L 1547,1079 C 1608,1110 1679,1106 1736,1070 L 3260,2198 C 3250,2203 3241,2211 3234,2222 3234,2222 3234,2223 3233,2223 L 2828,1924 C 2828,1971 2851,2017 2894,2044 L 3224,2250 C 3223,2265 3226,2279 3233,2289 3239,2282 3247,2277 3256,2277 3273,2277 3287,2291 3287,2310 3287,2315 3286,2319 3284,2323 3288,2320 3293,2317 3300,2317 3315,2317 3328,2330 3328,2347 3328,2349 3327,2351 3326,2353 L 3327,2353 C 3332,2348 3338,2345 3345,2345 3361,2345 3373,2359 3373,2375 3373,2377 3372,2379 3372,2381 3396,2395 3429,2385 3447,2357 3460,2335 3461,2310 3450,2293 3453,2291 3457,2289 3459,2286 3464,2280 3466,2272 3466,2265 3472,2259 3477,2254 3481,2247 3522,2182 3502,2096 3437,2055 L 3091,1839 C 3100,1824 3106,1806 3109,1787 L 3180,1298 C 3189,1238 3162,1181 3116,1152 3111,1142 3105,1133 3099,1124 3013,996 2847,977 2729,1082 L 2364,1415 1802,1000 C 1839,932 1831,849 1784,790 L 1676,922 C 1613,886 1544,851 1535,862 1525,875 1584,938 1628,981 Z"/>
      </g>
     </g>
     <g class="com.sun.star.drawing.ClosedBezierShape">
      <g id="id5">
       <rect class="BoundingBox" stroke="none" fill="none" x="633" y="1503" width="3169" height="2541"/>
       <path fill="rgb(63,63,63)" stroke="none" d="M 3790,3735 C 3790,3735 3728,3635 3577,3749 3427,3861 3313,3774 3300,3766 L 2207,3102 C 2230,3093 2254,3079 2274,3061 L 2743,2628 C 2810,2566 2825,2473 2781,2412 2768,2387 2750,2364 2724,2346 L 2408,2105 2714,1834 2267,1503 1899,1838 C 1785,1940 1782,2112 2019,2211 L 2425,2521 2075,2845 C 2033,2884 2011,2935 2012,2983 L 861,2283 C 780,2234 684,2242 647,2302 611,2362 648,2451 729,2500 L 2936,3843 C 3019,3905 3095,3951 3165,3982 L 3168,3984 C 3192,3998 3218,4008 3243,4012 3391,4060 3519,4046 3648,4006 3858,3942 3790,3735 3790,3735 Z"/>
      </g>
     </g>
    </g>
   </g>
  </g>
 </g>
</svg>