<?xml version="1.0"?>
<svg width="150" height="150" xmlns="http://www.w3.org/2000/svg" xmlns:svg="http://www.w3.org/2000/svg">

 <metadata id="metadata5110">image/svg+xml</metadata>
 <g>
  <title>walking</title>
  <g id="layer1">
   <g id="g64" transform="matrix(1.25,0,0,-1.25,126.00912,881.89533) ">
    <path fill="#3f3f3f" fill-rule="nonzero" stroke="#3f3f3f" d="m-47.999998,670.318104c4.73,0 8.566,3.846 8.566,8.572c0,4.733 -3.837,8.571 -8.566,8.571c-4.734,0 -8.57,-3.838 -8.57,-8.571c-0.002,-4.73 3.835,-8.572 8.57,-8.572" id="path66"/>
   </g>
   <g id="g68" transform="matrix(1.25,0,0,-1.25,89.16337,906.68545) ">
    <path fill="#3f3f3f" fill-rule="nonzero" stroke="#3f3f3f" d="m-47.999998,670.318104l3.756,-1.668c0.687,-0.305 1.488,-0.008 1.812,0.668l9.354,19.469c0.317,0.664 0.021,1.457 -0.653,1.738l-0.443,0.188c-0.823,0.351 -1.726,0.48 -2.612,0.353c-5.348,-0.768 -10.044,-2.678 -13.385,-5.482c-2.398,-2.022 -3.582,-5.133 -3.14,-8.235c0.441,-3.103 2.448,-5.76 5.311,-7.031" id="path70"/>
   </g>
   <g id="g72" transform="matrix(1.25,0,0,-1.25,193.18562,923.30657) ">
    <path fill="#3f3f3f" fill-rule="nonzero" stroke="#3f3f3f" d="m-47.999998,670.318104l-14.425,0c-2.262,0 -4.445,-0.818 -6.143,-2.311l-8.708,-7.646c-0.862,-0.754 -1.852,-1.354 -2.918,-1.77l-3.462,-1.345l-6.348,30.697l-4.165,-2.104l6.252,-30.251l-9.104,-3.538l-3.271,16.329c-0.165,0.818 -0.738,1.503 -1.52,1.808l-10.365,4.024c-0.345,0.136 -0.514,0.521 -0.375,0.871l5.311,13.166c0.138,0.345 0.529,0.511 0.876,0.367l5.778,-2.371c0.084,-0.035 0.17,-0.063 0.255,-0.096c0.728,-0.219 1.515,-0.152 2.191,0.19l3.503,1.767l4.166,2.106l0.818,0.412c0.179,0.095 0.334,0.215 0.462,0.353c0.358,0.406 0.497,0.985 0.319,1.531l-0.677,2.057c-0.234,0.731 -0.988,1.152 -1.732,0.99l-0.281,-0.062l-1.009,4.892c-0.251,1.219 -1.443,2.002 -2.661,1.75c-1.222,-0.252 -2.002,-1.441 -1.751,-2.66l1.02,-4.949l-2.309,-0.51c-0.413,-0.09 -0.85,0.02 -1.172,0.293l-10.129,8.6c-0.522,0.439 -1.312,0.244 -1.591,-0.369c-1.936,-4.285 -8.387,-18.6 -11.676,-26.287c-1.143,-2.67 0.003,-5.772 2.612,-7.051l12.799,-6.276c0.388,-0.189 0.684,-0.525 0.825,-0.933l4.163,-12.049l-18.425,-7.154l3.43,6.687c0.41,0.795 0.711,1.645 0.898,2.512l2.211,10.326l-8.925,3.772l-1.645,-13.123l-2.332,-11.327c-0.09,-0.439 0.025,-0.871 0.279,-1.207l-10.946,-4.252l0,-1.82l89.893,0l0,35.961l0.004,0z" id="path74"/>
   </g>
  </g>
 </g>
</svg>
